<?xml version="1.0" encoding="UTF-8"?> <svg xmlns="http://www.w3.org/2000/svg" width="360" height="1170" viewBox="0 0 360 1170" fill="none"> <g clip-path="url(#clip0)"> <rect width="360" height="1170" fill="white"></rect> <path d="M-1 12.3432L0.414214 10.929L7.48528 18L0.414214 25.0711L-1 23.6569L4.65685 18L-1 12.3432Z" fill="#A1A1A1"></path> <path d="M32.424 17.888C33.256 17.408 33.776 16.496 33.776 15.448C33.776 13.816 32.496 12.48 30.568 12.48H26.12V24H30.936C32.968 24 34.336 22.768 34.336 20.768C34.336 19.432 33.624 18.408 32.424 17.888ZM27.304 13.592H30.56C31.72 13.592 32.56 14.344 32.56 15.432C32.56 16.584 31.664 17.392 30.56 17.392H27.304V13.592ZM30.648 22.872H27.304V18.504H30.864C32.16 18.504 33.12 19.512 33.12 20.784C33.12 22.096 32.048 22.872 30.648 22.872ZM37.9293 15.928C37.6813 16.12 37.4413 16.4 37.2573 16.728V15.36H36.2013V24H37.3773V19.688C37.3773 18.656 37.5213 17.536 38.3853 16.856C39.0093 16.344 39.8093 16.312 40.4493 16.464V15.36C39.6893 15.168 38.6093 15.336 37.9293 15.928ZM42.8555 20.008H49.6635C49.7515 16.96 48.2475 15.12 45.6875 15.12C43.1915 15.12 41.5995 16.888 41.5995 19.72C41.5995 22.456 43.2155 24.24 45.7355 24.24C47.4075 24.24 48.8075 23.384 49.4955 21.872L48.3995 21.448C47.8635 22.528 46.9195 23.112 45.6875 23.112C43.9675 23.112 42.9515 21.984 42.8555 20.008ZM45.7195 16.2C47.3275 16.2 48.2475 17.16 48.4315 19.024H42.8795C43.0635 17.208 44.0555 16.2 45.7195 16.2ZM58.1034 16.848C57.6474 15.728 56.4954 15.12 54.9194 15.12C53.0154 15.12 51.7994 16.016 51.3994 17.56L52.5434 17.896C52.8714 16.744 53.7194 16.232 54.9034 16.232C56.5434 16.232 57.1914 16.984 57.2074 18.544C56.0554 18.704 54.4394 18.888 53.2714 19.168C51.9834 19.512 51.0714 20.264 51.0714 21.68C51.0714 23.056 52.0634 24.24 54.0234 24.24C55.4954 24.24 56.6394 23.664 57.3114 22.568V24H58.3594V18.632C58.3594 17.992 58.3114 17.352 58.1034 16.848ZM54.1594 23.224C52.7674 23.224 52.2474 22.432 52.2474 21.68C52.2474 20.744 53.0074 20.328 53.7434 20.112C54.6954 19.848 56.0554 19.712 57.1914 19.576C57.1914 19.968 57.1754 20.528 57.0794 20.952C56.8554 22.256 55.8074 23.224 54.1594 23.224ZM66.7668 12.48V16.376C66.1348 15.592 65.2148 15.12 64.0148 15.12C61.6468 15.12 60.2308 17.096 60.2308 19.672C60.2308 22.264 61.6388 24.24 64.0628 24.24C65.3188 24.24 66.2708 23.688 66.8948 22.792V24H67.9508V12.48H66.7668ZM64.1828 23.144C62.3828 23.144 61.4788 21.64 61.4788 19.672C61.4788 17.72 62.3508 16.216 64.2068 16.216C66.0068 16.216 66.8948 17.64 66.8948 19.672C66.8948 21.672 66.0228 23.144 64.1828 23.144ZM74.048 24.24C75.76 24.24 77.024 23.416 77.672 21.88L76.488 21.528C76.056 22.568 75.216 23.112 74.048 23.112C72.192 23.112 71.256 21.752 71.232 19.68C71.256 17.664 72.136 16.248 74.048 16.248C75.176 16.248 76.112 16.848 76.52 17.88L77.672 17.512C77.192 16.032 75.8 15.12 74.056 15.12C71.472 15.12 70.016 16.96 69.984 19.68C70.016 22.344 71.432 24.24 74.048 24.24ZM81.3202 15.928C81.0722 16.12 80.8322 16.4 80.6482 16.728V15.36H79.5922V24H80.7682V19.688C80.7682 18.656 80.9122 17.536 81.7762 16.856C82.4002 16.344 83.2002 16.312 83.8402 16.464V15.36C83.0802 15.168 82.0002 15.336 81.3202 15.928ZM91.7146 15.36V19.968C91.7146 21.92 90.8186 23.096 89.1546 23.096C87.3466 23.096 86.6506 21.672 86.6506 19.768V15.36H85.4666V20.112C85.4666 22.056 86.3386 24.216 88.9306 24.216C90.1706 24.216 91.1946 23.736 91.8346 22.8V24H92.8906V15.36H91.7146ZM104.011 15.128C102.859 15.128 101.899 15.672 101.395 16.584C100.931 15.64 100.011 15.128 98.8754 15.128C97.8514 15.128 96.9794 15.568 96.4434 16.272V15.36H95.3874V24H96.5714V18.424C96.5714 17.072 97.3714 16.184 98.5714 16.184C99.7634 16.184 100.563 17.032 100.563 18.408L100.555 24H101.715L101.723 18.424C101.723 16.816 102.755 16.184 103.739 16.184C104.875 16.184 105.707 16.992 105.707 18.328L105.699 24H106.875L106.883 18.104C106.883 16.28 105.755 15.128 104.011 15.128ZM113.155 15.12C111.955 15.12 111.035 15.592 110.403 16.376V12.48H109.219V24H110.275V22.792C110.899 23.688 111.851 24.24 113.107 24.24C115.531 24.24 116.939 22.264 116.939 19.672C116.939 17.096 115.523 15.12 113.155 15.12ZM112.987 23.144C111.147 23.144 110.275 21.672 110.275 19.672C110.275 17.64 111.163 16.216 112.963 16.216C114.819 16.216 115.691 17.72 115.691 19.672C115.691 21.64 114.787 23.144 112.987 23.144ZM122.11 24.232C124.23 24.232 125.518 23.24 125.518 21.608C125.518 20.272 124.774 19.656 122.39 19.048C120.35 18.536 119.862 18.216 119.862 17.528C119.862 16.712 120.71 16.168 121.934 16.192C123.23 16.216 124.134 16.84 124.302 17.856L125.502 17.64C125.326 16.136 123.902 15.12 121.95 15.12C119.998 15.12 118.67 16.112 118.67 17.584C118.67 18.792 119.39 19.36 121.734 19.992C123.926 20.584 124.294 20.824 124.294 21.624C124.294 22.568 123.486 23.16 122.174 23.16C120.83 23.16 119.854 22.536 119.606 21.552L118.406 21.752C118.702 23.312 120.086 24.232 122.11 24.232Z" fill="#818181"></path> <path d="M151 12.3432L152.414 10.929L159.485 18L152.414 25.0711L151 23.6569L156.657 18L151 12.3432Z" fill="#A1A1A1"></path> <path d="M182.384 24.24C184.752 24.24 186.904 23.04 186.904 20.648C186.904 18.36 184.936 17.784 183.816 17.48L181.752 16.904C180.976 16.696 180.088 16.384 180.088 15.528C180.088 14.632 181.096 14.032 182.248 14.056C183.432 14.088 184.496 14.768 184.744 15.984L186.816 15.624C186.304 13.488 184.64 12.28 182.272 12.256C179.928 12.24 178.064 13.4 178.064 15.624C178.064 17.656 179.608 18.272 180.632 18.568L183.608 19.448C184.48 19.712 184.888 20.136 184.888 20.776C184.888 21.84 183.736 22.432 182.504 22.432C181.112 22.432 179.952 21.656 179.616 20.288L177.616 20.592C177.976 22.856 179.864 24.24 182.384 24.24ZM190.3 20.216H196.556C196.78 17.104 195.212 15.12 192.532 15.12C189.988 15.12 188.236 16.944 188.236 19.776C188.236 22.4 190.02 24.24 192.644 24.24C194.308 24.24 195.796 23.344 196.46 21.776L194.556 21.2C194.18 22 193.476 22.432 192.532 22.432C191.22 22.432 190.452 21.64 190.3 20.216ZM192.612 16.808C193.804 16.808 194.436 17.408 194.596 18.76H190.348C190.572 17.48 191.316 16.808 192.612 16.808ZM200.949 16.872H203.485V15.36H200.949V12.96H199.029V15.36H197.461V16.872H199.029V20.472C199.029 21.464 198.957 22.192 199.357 22.936C200.029 24.176 201.773 24.328 203.485 24V22.384C202.405 22.544 201.509 22.552 201.125 21.912C200.917 21.584 200.949 21.048 200.949 20.36V16.872ZM209.503 15.12C208.518 15.12 207.718 15.432 207.11 15.984V15.36H205.406V27.84H207.35V23.56C207.934 23.992 208.679 24.24 209.575 24.24C211.967 24.24 213.519 22.272 213.519 19.68C213.519 17.056 211.951 15.12 209.503 15.12ZM209.279 22.512C207.727 22.512 207.11 21.352 207.11 19.68C207.11 17.992 207.742 16.848 209.214 16.848C210.766 16.848 211.478 18.112 211.478 19.68C211.478 21.264 210.783 22.512 209.279 22.512ZM217.93 15.816C217.57 16.04 217.282 16.368 217.066 16.744V15.36H215.362V24H217.298V19.608C217.298 18.608 217.65 17.8 218.442 17.368C218.978 17.056 219.706 17.016 220.226 17.16V15.36C219.45 15.24 218.57 15.376 217.93 15.816ZM225.492 24.24C228.076 24.24 229.804 22.376 229.804 19.68C229.804 17.008 228.1 15.12 225.492 15.12C222.94 15.12 221.196 16.968 221.196 19.68C221.196 22.352 222.892 24.24 225.492 24.24ZM225.492 22.432C224.004 22.432 223.236 21.36 223.236 19.68C223.236 18.048 223.94 16.928 225.492 16.928C227.004 16.928 227.764 18.008 227.764 19.68C227.764 21.304 227.02 22.432 225.492 22.432ZM237.335 12.48V15.784C236.759 15.36 236.047 15.12 235.183 15.12C232.735 15.12 231.167 17.056 231.167 19.68C231.167 22.272 232.719 24.24 235.111 24.24C236.135 24.24 236.959 23.92 237.575 23.36V24H239.279V12.48H237.335ZM235.407 22.512C233.903 22.512 233.207 21.264 233.207 19.68C233.207 18.112 233.919 16.848 235.471 16.848C236.943 16.848 237.575 17.992 237.575 19.68C237.575 21.352 236.959 22.512 235.407 22.512ZM247.434 15.36V19.8C247.434 21.896 246.394 22.432 245.41 22.432C243.57 22.432 243.394 20.584 243.394 19.52V15.36H241.442V20.184C241.442 21.208 241.658 24.248 244.842 24.248C246.09 24.248 247.034 23.784 247.666 23.04V24H249.37V15.36H247.434ZM255.449 24.24C257.377 24.24 258.761 23.264 259.297 21.504L257.329 21.064C257.033 21.952 256.473 22.432 255.449 22.432C254.001 22.432 253.265 21.328 253.257 19.68C253.265 18.096 253.937 16.928 255.449 16.928C256.329 16.928 257.081 17.472 257.377 18.4L259.297 17.88C258.889 16.176 257.433 15.12 255.473 15.12C252.849 15.12 251.225 17.032 251.217 19.68C251.225 22.288 252.777 24.24 255.449 24.24ZM263.509 16.872H266.045V15.36H263.509V12.96H261.589V15.36H260.021V16.872H261.589V20.472C261.589 21.464 261.517 22.192 261.917 22.936C262.589 24.176 264.333 24.328 266.045 24V22.384C264.965 22.544 264.069 22.552 263.685 21.912C263.477 21.584 263.509 21.048 263.509 20.36V16.872ZM278.074 17.928C278.794 17.496 279.226 16.696 279.226 15.648C279.226 14.096 278.162 12.48 275.834 12.48H271.266V24H276.298C278.57 24 279.762 22.624 279.762 20.576C279.762 19.416 279.178 18.392 278.074 17.928ZM273.218 14.28H275.81C276.722 14.28 277.266 14.88 277.266 15.68C277.266 16.6 276.634 17.08 275.81 17.08H273.218V14.28ZM276.058 22.184H273.218V18.88H276.114C277.194 18.88 277.818 19.592 277.818 20.52C277.818 21.544 277.066 22.184 276.058 22.184ZM287.271 15.36V19.8C287.271 21.896 286.231 22.432 285.247 22.432C283.407 22.432 283.231 20.584 283.231 19.52V15.36H281.279V20.184C281.279 21.208 281.495 24.248 284.679 24.248C285.927 24.248 286.871 23.784 287.503 23.04V24H289.207V15.36H287.271ZM291.695 14.048H293.623V12.28H291.695V14.048ZM291.695 24H293.623V15.36H291.695V24ZM296.259 24H298.187V12.24H296.259V24ZM306.352 12.48V15.784C305.776 15.36 305.064 15.12 304.2 15.12C301.752 15.12 300.184 17.056 300.184 19.68C300.184 22.272 301.736 24.24 304.128 24.24C305.152 24.24 305.976 23.92 306.592 23.36V24H308.296V12.48H306.352ZM304.424 22.512C302.92 22.512 302.224 21.264 302.224 19.68C302.224 18.112 302.936 16.848 304.488 16.848C305.96 16.848 306.592 17.992 306.592 19.68C306.592 21.352 305.976 22.512 304.424 22.512Z" fill="#414141"></path> <path d="M320 18C320 11.3726 325.373 6 332 6H342C348.627 6 354 11.3726 354 18V18C354 24.6274 348.627 30 342 30H332C325.373 30 320 24.6274 320 18V18Z" fill="#00776A"></path> <path d="M332.177 19.108C333.325 18.1 333.92 17.519 333.92 16.077C333.92 14.103 332.464 12.71 330.525 12.71C328.446 12.71 326.997 14.026 326.997 16.042H328.726C328.705 15.118 329.447 14.299 330.49 14.299C331.498 14.299 332.184 15.048 332.184 16.056C332.184 16.553 331.96 17.078 331.295 17.673L326.983 21.516V22.986H333.92V21.397H329.594L332.177 19.108ZM336.134 23H337.863V21.271H336.134V23ZM343.543 23.21C345.685 23.21 347.169 21.733 347.169 19.584V16.336C347.169 14.187 345.685 12.71 343.543 12.71C341.394 12.71 339.917 14.187 339.917 16.336V19.584C339.917 21.733 341.394 23.21 343.543 23.21ZM343.543 21.607C342.472 21.607 341.632 20.767 341.632 19.703V16.21C341.632 15.139 342.472 14.299 343.543 14.299C344.607 14.299 345.447 15.139 345.447 16.21V19.703C345.447 20.767 344.607 21.607 343.543 21.607Z" fill="#ABFBF3"></path> <rect width="360" height="32" transform="translate(0 76)" fill="#E0E0E0" fill-opacity="0.5"></rect> <path d="M13.95 96H15.34V88.8H13.95L12.6 89.61V91.11L13.95 90.28V96ZM21.461 91.38C20.981 91.38 20.511 91.535 20.131 91.825V91.21C20.131 90.55 20.631 89.93 21.411 89.93C21.741 89.93 22.071 90.07 22.311 90.31L23.281 89.34C22.751 88.85 22.111 88.66 21.411 88.66C19.791 88.66 18.741 89.71 18.741 91.41V93.5C18.741 95.07 19.821 96.15 21.251 96.15C22.611 96.15 23.761 95.09 23.761 93.73C23.761 92.37 22.821 91.38 21.461 91.38ZM21.251 94.85C20.631 94.85 20.131 94.33 20.131 93.73C20.131 93.11 20.641 92.6 21.261 92.6C21.881 92.6 22.381 93.11 22.381 93.73C22.381 94.35 21.871 94.85 21.251 94.85ZM26.8717 92.56H28.2317V91.2H26.8717V92.56ZM26.8617 95.4H28.2217V94.04H26.8617V95.4ZM35.0559 93.3C35.9159 92.55 36.3759 92.16 36.3759 91.09C36.3759 89.64 35.3259 88.65 33.9159 88.65C32.3759 88.65 31.3359 89.58 31.3359 91.06H32.7359C32.7159 90.46 33.1959 89.93 33.8859 89.93C34.5459 89.93 34.9759 90.41 34.9759 91.07C34.9759 91.38 34.8059 91.73 34.3559 92.13L31.3359 94.81V95.99H36.3759V94.71H33.4459L35.0559 93.3ZM41.7411 96.15C43.3411 96.15 44.4111 95.08 44.4111 93.48V91.32C44.4111 89.72 43.3411 88.65 41.7411 88.65C40.1411 88.65 39.0711 89.72 39.0711 91.32V93.48C39.0711 95.08 40.1411 96.15 41.7411 96.15ZM41.7411 94.86C41.0211 94.86 40.4611 94.3 40.4611 93.58V91.21C40.4611 90.49 41.0211 89.93 41.7411 89.93C42.4611 89.93 43.0211 90.49 43.0211 91.21V93.58C43.0211 94.3 42.4611 94.86 41.7411 94.86Z" fill="#818181"></path> <path d="M53.9997 88.6667C53.9997 88.2985 53.7012 88 53.333 88C52.9648 88 52.6663 88.2985 52.6663 88.6667V95.3333C52.6663 95.7015 52.9648 96 53.333 96C53.7012 96 53.9997 95.7015 53.9997 95.3333V88.6667Z" fill="#2AB930"></path> <path d="M59.333 94C59.333 93.6318 59.0345 93.3333 58.6663 93.3333C58.2982 93.3333 57.9997 93.6318 57.9997 94V95.3333C57.9997 95.7015 58.2982 96 58.6663 96C59.0345 96 59.333 95.7015 59.333 95.3333V94Z" fill="#2AB930"></path> <path d="M55.9997 90.6667C56.3679 90.6667 56.6663 90.9651 56.6663 91.3333V95.3333C56.6663 95.7015 56.3679 96 55.9997 96C55.6315 96 55.333 95.7015 55.333 95.3333V91.3333C55.333 90.9651 55.6315 90.6667 55.9997 90.6667Z" fill="#2AB930"></path> <path fill-rule="evenodd" clip-rule="evenodd" d="M297.717 86.1667L290.5 98.6667H304.934L297.717 86.1667ZM297.717 91.1667L294.83 96.1667H300.604L297.717 91.1667Z" fill="#2AB930"></path> <path fill-rule="evenodd" clip-rule="evenodd" d="M318 96.1666C320.301 96.1666 322.166 94.3012 322.166 92C322.166 89.6988 320.301 87.8333 318 87.8333C315.698 87.8333 313.833 89.6988 313.833 92C313.833 94.3012 315.698 96.1666 318 96.1666ZM318 98.6666C321.682 98.6666 324.666 95.6819 324.666 92C324.666 88.3181 321.682 85.3333 318 85.3333C314.318 85.3333 311.333 88.3181 311.333 92C311.333 95.6819 314.318 98.6666 318 98.6666Z" fill="#ED9526"></path> <path fill-rule="evenodd" clip-rule="evenodd" d="M342.166 87.8333H333.833V96.1666H342.166V87.8333ZM331.333 85.3333V98.6666H344.666V85.3333H331.333Z" fill="#5096F1"></path> <line y1="153.5" x2="360" y2="153.5" stroke="#E0E0E0"></line> <rect opacity="0.25" y="200" width="360" height="12" fill="#E0E0E0"></rect> <line y1="211.5" x2="360" y2="211.5" stroke="#E0E0E0"></line> <line y1="200.5" x2="360" y2="200.5" stroke="#E0E0E0"></line> <rect x="8" y="252" width="48" height="24" rx="10" fill="#E0E0E0"></rect> <g filter="url(#filter0_dd)"> <rect x="8" y="252" width="24" height="24" rx="10" fill="white"></rect> <rect x="8.25" y="252.25" width="23.5" height="23.5" rx="9.75" stroke="#C0C0C0" stroke-width="0.5"></rect> </g> <rect x="80" y="252" width="48" height="24" rx="10" fill="#C5DCFA"></rect> <g filter="url(#filter1_dd)"> <rect x="104" y="252" width="24" height="24" rx="10" fill="#1672EC"></rect> <rect x="104.25" y="252.25" width="23.5" height="23.5" rx="9.75" stroke="#1672EC" stroke-width="0.5"></rect> </g> <rect x="152" y="252" width="48" height="24" rx="10" fill="#C5F2C7"></rect> <g filter="url(#filter2_dd)"> <rect x="176" y="252" width="24" height="24" rx="10" fill="#2AB930"></rect> <rect x="176.25" y="252.25" width="23.5" height="23.5" rx="9.75" stroke="#2AB930" stroke-width="0.5"></rect> </g> <rect x="224" y="252" width="48" height="24" rx="10" fill="#FCD0CF"></rect> <g filter="url(#filter3_dd)"> <rect x="248" y="252" width="24" height="24" rx="10" fill="#F5413D"></rect> <rect x="248.25" y="252.25" width="23.5" height="23.5" rx="9.75" stroke="#F5413D" stroke-width="0.5"></rect> </g> <line x1="12" y1="325" x2="12" y2="363" stroke="#E0E0E0" stroke-width="2" stroke-linecap="round" stroke-linejoin="round"></line> <rect x="48" y="320" width="48" height="48" rx="24" fill="#C52CEE"></rect> <rect x="81.75" y="353.75" width="14.5" height="14.5" rx="7.25" fill="#2AB930" stroke="white" stroke-width="1.5"></rect> <rect x="120" y="320" width="48" height="48" rx="24" fill="#818181"></rect> <path d="M138.757 352H140.927L136.247 337.6H133.237L128.557 352H130.727L131.777 348.75H137.687L138.757 352ZM132.417 346.79L134.717 339.7L137.047 346.79H132.417ZM143.231 352H145.441V349.79H143.231V352ZM157.043 344.39C157.993 343.84 158.573 342.79 158.573 341.47C158.573 339.51 157.153 337.6 154.403 337.6H148.743V352H154.943C157.683 352 159.253 350.34 159.253 347.8C159.253 346.27 158.473 345 157.043 344.39ZM150.863 339.57H154.373C155.623 339.57 156.433 340.37 156.433 341.49C156.433 342.75 155.533 343.48 154.373 343.48H150.863V339.57ZM154.623 350.01H150.863V345.45H154.753C156.193 345.45 157.113 346.45 157.113 347.76C157.113 349.16 156.053 350.01 154.623 350.01Z" fill="white"></path> <rect x="192" y="320" width="48" height="48" rx="24" fill="#E0E0E0"></rect> <path fill-rule="evenodd" clip-rule="evenodd" d="M222.667 339C222.667 342.682 219.682 345.667 216 345.667C212.318 345.667 209.334 342.682 209.334 339C209.334 335.318 212.318 332.333 216 332.333C219.682 332.333 222.667 335.318 222.667 339ZM219.334 339C219.334 340.841 217.841 342.333 216 342.333C214.159 342.333 212.667 340.841 212.667 339C212.667 337.159 214.159 335.667 216 335.667C217.841 335.667 219.334 337.159 219.334 339Z" fill="white"></path> <path fill-rule="evenodd" clip-rule="evenodd" d="M216 325.667C205.875 325.667 197.667 333.875 197.667 344C197.667 354.125 205.875 362.333 216 362.333C226.126 362.333 234.334 354.125 234.334 344C234.334 333.875 226.126 325.667 216 325.667ZM201 344C201 347.484 202.188 350.69 204.18 353.236C206.921 349.648 211.244 347.333 216.108 347.333C220.908 347.333 225.182 349.588 227.928 353.097C229.855 350.574 231 347.421 231 344C231 335.716 224.285 329 216 329C207.716 329 201 335.716 201 344ZM216 359C212.417 359 209.126 357.743 206.546 355.646C208.656 352.635 212.152 350.667 216.108 350.667C220.014 350.667 223.473 352.587 225.59 355.535C222.99 357.699 219.647 359 216 359Z" fill="white"></path> <path d="M288.112 431.896H289.12V428.744H292.264V427.736H289.12V424.584H288.112V427.736H284.96V428.744H288.112V431.896ZM298.408 426.848L301.784 423.624V422.48H295.128V423.608H300.28L296.328 427.264L296.92 428.2C297.304 428.008 297.792 427.88 298.208 427.88C299.704 427.88 300.696 428.92 300.696 430.488C300.696 432.032 299.768 433.064 298.232 433.096C297.12 433.12 296.168 432.52 295.784 431.376L294.664 431.712C295.152 433.272 296.536 434.232 298.24 434.232C300.36 434.232 301.912 432.704 301.912 430.488C301.912 428.336 300.496 426.832 298.408 426.848ZM308.598 426.848L311.974 423.624V422.48H305.318V423.608H310.47L306.518 427.264L307.11 428.2C307.494 428.008 307.982 427.88 308.398 427.88C309.894 427.88 310.886 428.92 310.886 430.488C310.886 432.032 309.958 433.064 308.422 433.096C307.31 433.12 306.358 432.52 305.974 431.376L304.854 431.712C305.342 433.272 306.726 434.232 308.43 434.232C310.55 434.232 312.102 432.704 312.102 430.488C312.102 428.336 310.686 426.832 308.598 426.848ZM317.229 428C318.813 428 320.109 426.72 320.109 425.12C320.109 423.52 318.813 422.24 317.229 422.24C315.693 422.24 314.349 423.552 314.349 425.12C314.349 426.72 315.645 428 317.229 428ZM317.229 426.936C316.245 426.936 315.413 426.104 315.413 425.12C315.413 424.136 316.245 423.304 317.229 423.304C318.213 423.304 319.045 424.136 319.045 425.12C319.045 426.104 318.213 426.936 317.229 426.936Z" fill="#616161"></path> <path fill-rule="evenodd" clip-rule="evenodd" d="M340 432C337.791 432 336 430.209 336 428C336 425.791 337.791 424 340 424C342.209 424 344 425.791 344 428C344 430.209 342.209 432 340 432ZM340 434C336.686 434 334 431.314 334 428C334 424.686 336.686 422 340 422C343.314 422 346 424.686 346 428C346 431.314 343.314 434 340 434Z" fill="#D4B011"></path> <path fill-rule="evenodd" clip-rule="evenodd" d="M341 416H339V420.062C339.328 420.021 339.661 420 340 420C340.339 420 340.672 420.021 341 420.062V416ZM344.906 421.68L347.778 418.808L349.192 420.222L346.32 423.094C345.909 422.566 345.434 422.091 344.906 421.68ZM347.938 427H352V429H347.938C347.979 428.672 348 428.339 348 428C348 427.661 347.979 427.328 347.938 427ZM346.32 432.906L349.192 435.778L347.778 437.192L344.906 434.32C345.434 433.909 345.909 433.434 346.32 432.906ZM341 435.938V440H339V435.938C339.328 435.979 339.661 436 340 436C340.339 436 340.672 435.979 341 435.938ZM335.094 434.32L332.222 437.192L330.808 435.778L333.68 432.906C334.091 433.434 334.566 433.909 335.094 434.32ZM332.062 429H328V427H332.062C332.021 427.328 332 427.661 332 428C332 428.339 332.021 428.672 332.062 429ZM333.68 423.094L330.808 420.222L332.222 418.808L335.094 421.68C334.566 422.091 334.091 422.566 333.68 423.094Z" fill="#D4B011"></path> <path d="M7.41 436.3C10.73 436.3 12.96 434.49 13.81 431.65L11.69 431.08C11.12 433.09 9.69 434.31 7.41 434.31C4.35 434.31 2.79 432.1 2.81 428.8C2.82 425.5 4.35 423.29 7.41 423.29C9.69 423.29 11.12 424.51 11.69 426.52L13.81 425.95C12.96 423.11 10.73 421.3 7.41 421.3C3.09 421.3 0.6 424.35 0.6 428.8C0.6 433.25 3.09 436.3 7.41 436.3ZM20.8494 436.3C24.0694 436.3 26.1494 433.97 26.1494 430.59C26.1494 427.25 24.0894 424.9 20.8494 424.9C17.6694 424.9 15.5594 427.21 15.5594 430.59C15.5594 433.94 17.6094 436.3 20.8494 436.3ZM20.8494 434.33C18.8294 434.33 17.7794 432.87 17.7794 430.59C17.7794 428.39 18.7494 426.87 20.8494 426.87C22.8894 426.87 23.9294 428.33 23.9294 430.59C23.9294 432.8 22.9094 434.33 20.8494 434.33ZM28.6969 436H30.7869V421.3H28.6969V436ZM38.6298 436.3C41.8498 436.3 43.9298 433.97 43.9298 430.59C43.9298 427.25 41.8698 424.9 38.6298 424.9C35.4498 424.9 33.3398 427.21 33.3398 430.59C33.3398 433.94 35.3898 436.3 38.6298 436.3ZM38.6298 434.33C36.6098 434.33 35.5598 432.87 35.5598 430.59C35.5598 428.39 36.5298 426.87 38.6298 426.87C40.6698 426.87 41.7098 428.33 41.7098 430.59C41.7098 432.8 40.6898 434.33 38.6298 434.33ZM49.1373 425.81C48.7273 426.08 48.3873 426.47 48.1373 426.92V425.2H46.2773V436H48.3873V430.55C48.3873 429.28 48.7273 428.14 49.7473 427.49C50.4673 427.03 51.4073 426.97 52.1073 427.16V425.2C51.1373 425.02 49.9473 425.21 49.1373 425.81ZM55.6064 431.19H63.6564C63.8764 427.32 61.9564 424.9 58.6564 424.9C55.4964 424.9 53.3664 427.15 53.3664 430.69C53.3664 434.03 55.5264 436.3 58.7564 436.3C60.8464 436.3 62.6764 435.19 63.5164 433.26L61.4664 432.61C60.9364 433.72 59.9564 434.33 58.6564 434.33C56.8364 434.33 55.7764 433.2 55.6064 431.19ZM58.7364 426.75C60.3964 426.75 61.2964 427.65 61.5164 429.56H55.6564C55.9264 427.73 56.9564 426.75 58.7364 426.75ZM73.32 421.6V425.94C72.57 425.28 71.59 424.9 70.38 424.9C67.34 424.9 65.45 427.33 65.45 430.59C65.45 433.83 67.33 436.3 70.34 436.3C71.7 436.3 72.78 435.82 73.56 435.01V436H75.42V421.6H73.32ZM70.63 434.41C68.62 434.41 67.67 432.73 67.67 430.59C67.67 428.47 68.62 426.79 70.7 426.79C72.67 426.79 73.56 428.35 73.56 430.59C73.56 432.83 72.69 434.41 70.63 434.41ZM82.7219 423.43H84.8119V421.4H82.7219V423.43ZM82.7219 436H84.8119V425.2H82.7219V436ZM90.9348 426.88H94.1448V425.2H90.9348V422.2H88.8348V425.2H86.7648V426.88H88.8348V431.75C88.8348 432.93 88.7648 433.8 89.2348 434.69C90.0248 436.19 92.1148 436.4 94.1448 436V434.23C92.7348 434.44 91.6348 434.41 91.1548 433.59C90.8948 433.15 90.9348 432.52 90.9348 431.65V426.88ZM97.7041 431.19H105.754C105.974 427.32 104.054 424.9 100.754 424.9C97.5941 424.9 95.4641 427.15 95.4641 430.69C95.4641 434.03 97.6241 436.3 100.854 436.3C102.944 436.3 104.774 435.19 105.614 433.26L103.564 432.61C103.034 433.72 102.054 434.33 100.754 434.33C98.9341 434.33 97.8741 433.2 97.7041 431.19ZM100.834 426.75C102.494 426.75 103.394 427.65 103.614 429.56H97.7541C98.0241 427.73 99.0541 426.75 100.834 426.75ZM119.225 424.93C117.815 424.93 116.605 425.59 115.945 426.68C115.375 425.59 114.295 424.93 112.805 424.93C111.505 424.93 110.395 425.48 109.705 426.36V425.2H107.845V436H109.945V429.25C109.945 427.78 110.825 426.79 112.145 426.79C113.475 426.79 114.335 427.75 114.335 429.31L114.325 436H116.415L116.425 429.25C116.425 427.62 117.435 426.79 118.625 426.79C119.925 426.79 120.805 427.72 120.805 429.27L120.795 436H122.885L122.895 428.77C122.895 426.45 121.545 424.93 119.225 424.93ZM129.771 436.29C132.501 436.29 134.151 435.01 134.151 432.87C134.151 431.2 133.221 430.37 130.501 429.67C127.971 429.03 127.481 428.75 127.481 428.03C127.481 427.21 128.341 426.69 129.611 426.74C130.931 426.79 131.801 427.43 131.951 428.46L134.091 428.07C133.851 426.15 132.071 424.9 129.591 424.9C127.051 424.9 125.391 426.18 125.391 428.14C125.391 429.73 126.311 430.5 129.101 431.23C131.641 431.91 132.001 432.13 132.001 432.95C132.001 433.89 131.211 434.45 129.911 434.45C128.471 434.45 127.451 433.77 127.181 432.64L125.041 432.97C125.411 435.08 127.141 436.29 129.771 436.29Z" fill="black"></path> <rect x="8" y="460" width="56" height="56" rx="26" fill="#2AB930"></rect> <path fill-rule="evenodd" clip-rule="evenodd" d="M44.2781 474.667H50.667V477.333H46.3758L42.6841 494.237H42.667V494.667H25.3337V494.336L22.4094 481.455L21.9593 480H43.1267L43.8872 476.518L44.2781 474.667ZM25.3512 482.667H42.5443L40.5059 492H27.47L25.3512 482.667Z" fill="#C5F2C7"></path> <path d="M38.667 501.333C37.1942 501.333 36.0003 500.139 36.0003 498.667C36.0003 497.194 37.1942 496 38.667 496C40.1398 496 41.3337 497.194 41.3337 498.667C41.3337 500.139 40.1398 501.333 38.667 501.333Z" fill="#C5F2C7"></path> <path d="M26.667 498.667C26.667 500.139 27.8609 501.333 29.3337 501.333C30.8064 501.333 32.0003 500.139 32.0003 498.667C32.0003 497.194 30.8064 496 29.3337 496C27.8609 496 26.667 497.194 26.667 498.667Z" fill="#C5F2C7"></path> <path d="M11.8285 541.18C14.3665 541.18 15.6265 539.44 15.6265 537.106C15.6265 537.022 15.6205 536.782 15.6025 536.596H12.6865V537.352H14.6785C14.5885 539.194 13.7185 540.34 11.8645 540.334C9.83648 540.322 8.80448 538.84 8.82248 536.68C8.84048 534.52 9.83648 533.026 11.8645 533.038C13.1365 533.038 14.0125 533.722 14.3965 534.778L15.2845 534.562C14.8285 533.116 13.6645 532.186 11.8285 532.186C9.35648 532.186 7.88648 533.962 7.88648 536.68C7.88648 539.416 9.38048 541.18 11.8285 541.18ZM18.4834 534.946C18.2974 535.09 18.1174 535.3 17.9794 535.546V534.52H17.1874V541H18.0694V537.766C18.0694 536.992 18.1774 536.152 18.8254 535.642C19.2934 535.258 19.8934 535.234 20.3734 535.348V534.52C19.8034 534.376 18.9934 534.502 18.4834 534.946ZM24.4605 541.18C26.3805 541.18 27.5325 539.794 27.5325 537.754C27.5325 535.75 26.4045 534.34 24.4605 534.34C22.5645 534.34 21.3945 535.714 21.3945 537.754C21.3945 539.764 22.5285 541.18 24.4605 541.18ZM24.4605 540.334C23.0565 540.334 22.3305 539.314 22.3305 537.754C22.3305 536.242 23.0085 535.186 24.4605 535.186C25.8885 535.186 26.5965 536.194 26.5965 537.754C26.5965 539.284 25.9005 540.334 24.4605 540.334ZM31.904 541.18C33.188 541.18 34.136 540.562 34.622 539.41L33.734 539.146C33.41 539.926 32.78 540.334 31.904 540.334C30.512 540.334 29.81 539.314 29.792 537.76C29.81 536.248 30.47 535.186 31.904 535.186C32.75 535.186 33.452 535.636 33.758 536.41L34.622 536.134C34.262 535.024 33.218 534.34 31.91 534.34C29.972 534.34 28.88 535.72 28.856 537.76C28.88 539.758 29.942 541.18 31.904 541.18ZM36.6268 538.006H41.7328C41.7988 535.72 40.6708 534.34 38.7508 534.34C36.8788 534.34 35.6848 535.666 35.6848 537.79C35.6848 539.842 36.8968 541.18 38.7868 541.18C40.0408 541.18 41.0908 540.538 41.6068 539.404L40.7848 539.086C40.3828 539.896 39.6748 540.334 38.7508 540.334C37.4608 540.334 36.6988 539.488 36.6268 538.006ZM38.7748 535.15C39.9808 535.15 40.6708 535.87 40.8088 537.268H36.6448C36.7828 535.906 37.5268 535.15 38.7748 535.15ZM44.7203 534.946C44.5343 535.09 44.3543 535.3 44.2163 535.546V534.52H43.4243V541H44.3063V537.766C44.3063 536.992 44.4143 536.152 45.0623 535.642C45.5303 535.258 46.1303 535.234 46.6103 535.348V534.52C46.0403 534.376 45.2303 534.502 44.7203 534.946ZM48.2285 533.29H49.1105V532.3H48.2285V533.29ZM48.2285 541H49.1105V534.52H48.2285V541ZM51.8513 538.006H56.9573C57.0233 535.72 55.8953 534.34 53.9753 534.34C52.1033 534.34 50.9093 535.666 50.9093 537.79C50.9093 539.842 52.1213 541.18 54.0113 541.18C55.2653 541.18 56.3153 540.538 56.8313 539.404L56.0093 539.086C55.6073 539.896 54.8993 540.334 53.9753 540.334C52.6853 540.334 51.9233 539.488 51.8513 538.006ZM53.9993 535.15C55.2053 535.15 55.8953 535.87 56.0333 537.268H51.8693C52.0073 535.906 52.7513 535.15 53.9993 535.15ZM61.0668 541.174C62.6568 541.174 63.6228 540.43 63.6228 539.206C63.6228 538.204 63.0648 537.742 61.2768 537.286C59.7468 536.902 59.3808 536.662 59.3808 536.146C59.3808 535.534 60.0168 535.126 60.9348 535.144C61.9068 535.162 62.5848 535.63 62.7108 536.392L63.6108 536.23C63.4788 535.102 62.4108 534.34 60.9468 534.34C59.4828 534.34 58.4868 535.084 58.4868 536.188C58.4868 537.094 59.0268 537.52 60.7848 537.994C62.4288 538.438 62.7048 538.618 62.7048 539.218C62.7048 539.926 62.0988 540.37 61.1148 540.37C60.1068 540.37 59.3748 539.902 59.1888 539.164L58.2888 539.314C58.5108 540.484 59.5488 541.174 61.0668 541.174ZM14.3511 551.636C14.0091 550.796 13.1451 550.34 11.9631 550.34C10.5351 550.34 9.62311 551.012 9.32311 552.17L10.1811 552.422C10.4271 551.558 11.0631 551.174 11.9511 551.174C13.1811 551.174 13.6671 551.738 13.6791 552.908C12.8151 553.028 11.6031 553.166 10.7271 553.376C9.76111 553.634 9.07711 554.198 9.07711 555.26C9.07711 556.292 9.82111 557.18 11.2911 557.18C12.3951 557.18 13.2531 556.748 13.7571 555.926V557H14.5431V552.974C14.5431 552.494 14.5071 552.014 14.3511 551.636ZM11.3931 556.418C10.3491 556.418 9.95911 555.824 9.95911 555.26C9.95911 554.558 10.5291 554.246 11.0811 554.084C11.7951 553.886 12.8151 553.784 13.6671 553.682C13.6671 553.976 13.6551 554.396 13.5831 554.714C13.4151 555.692 12.6291 556.418 11.3931 556.418ZM19.4351 550.358C18.5051 550.358 17.7371 550.718 17.2571 551.42V550.52H16.4591V557H17.3471V553.544C17.3471 552.08 18.0191 551.198 19.2671 551.198C20.6231 551.198 21.1451 552.266 21.1451 553.694V557H22.0331V553.436C22.0331 551.978 21.3791 550.358 19.4351 550.358ZM28.4452 548.36V551.282C27.9712 550.694 27.2812 550.34 26.3812 550.34C24.6052 550.34 23.5432 551.822 23.5432 553.754C23.5432 555.698 24.5992 557.18 26.4172 557.18C27.3592 557.18 28.0732 556.766 28.5412 556.094V557H29.3332V548.36H28.4452ZM26.5072 556.358C25.1572 556.358 24.4792 555.23 24.4792 553.754C24.4792 552.29 25.1332 551.162 26.5252 551.162C27.8752 551.162 28.5412 552.23 28.5412 553.754C28.5412 555.254 27.8872 556.358 26.5072 556.358ZM34.1388 557H34.9848V550.328L38.0568 557H38.6268L41.7048 550.328V556.994H42.5448V548.36H41.7228L38.3448 555.626L34.9488 548.36H34.1388V557ZM49.5027 551.636C49.1607 550.796 48.2967 550.34 47.1147 550.34C45.6867 550.34 44.7747 551.012 44.4747 552.17L45.3327 552.422C45.5787 551.558 46.2147 551.174 47.1027 551.174C48.3327 551.174 48.8187 551.738 48.8307 552.908C47.9667 553.028 46.7547 553.166 45.8787 553.376C44.9127 553.634 44.2287 554.198 44.2287 555.26C44.2287 556.292 44.9727 557.18 46.4427 557.18C47.5467 557.18 48.4047 556.748 48.9087 555.926V557H49.6947V552.974C49.6947 552.494 49.6587 552.014 49.5027 551.636ZM46.5447 556.418C45.5007 556.418 45.1107 555.824 45.1107 555.26C45.1107 554.558 45.6807 554.246 46.2327 554.084C46.9467 553.886 47.9667 553.784 48.8187 553.682C48.8187 553.976 48.8067 554.396 48.7347 554.714C48.5667 555.692 47.7807 556.418 46.5447 556.418ZM51.7366 557H52.6186V548.18H51.7366V557ZM54.8974 557H55.7794V548.18H54.8974V557ZM60.3562 557.174C61.9462 557.174 62.9122 556.43 62.9122 555.206C62.9122 554.204 62.3542 553.742 60.5662 553.286C59.0362 552.902 58.6702 552.662 58.6702 552.146C58.6702 551.534 59.3062 551.126 60.2242 551.144C61.1962 551.162 61.8742 551.63 62.0002 552.392L62.9002 552.23C62.7682 551.102 61.7002 550.34 60.2362 550.34C58.7722 550.34 57.7762 551.084 57.7762 552.188C57.7762 553.094 58.3162 553.52 60.0742 553.994C61.7182 554.438 61.9942 554.618 61.9942 555.218C61.9942 555.926 61.3882 556.37 60.4042 556.37C59.3962 556.37 58.6642 555.902 58.4782 555.164L57.5782 555.314C57.8002 556.484 58.8382 557.174 60.3562 557.174Z" fill="#414141"></path> <rect x="80" y="460" width="56" height="56" rx="26" fill="#2E41B6"></rect> <path fill-rule="evenodd" clip-rule="evenodd" d="M117.333 477.333H98.6663C97.93 477.333 97.333 477.93 97.333 478.667V497.333C97.333 498.07 97.93 498.667 98.6663 498.667H117.333C118.069 498.667 118.666 498.07 118.666 497.333V478.667C118.666 477.93 118.069 477.333 117.333 477.333ZM121.333 478.667C121.333 476.457 119.542 474.667 117.333 474.667H98.6663C96.4572 474.667 94.6663 476.457 94.6663 478.667V497.333C94.6663 499.542 96.4572 501.333 98.6663 501.333H117.333C119.542 501.333 121.333 499.542 121.333 497.333V478.667ZM108 488C111.682 488 114.666 484.418 114.666 480H112C112 483.421 109.774 485.333 108 485.333C106.225 485.333 104 483.421 104 480H101.333C101.333 484.418 104.318 488 108 488Z" fill="#C7CDF1"></path> <path d="M94.5262 541H95.4082V537.118H98.7682V536.242H95.4082V533.242H99.4882V532.36H94.5262V541ZM103.463 541.18C105.383 541.18 106.535 539.794 106.535 537.754C106.535 535.75 105.407 534.34 103.463 534.34C101.567 534.34 100.397 535.714 100.397 537.754C100.397 539.764 101.531 541.18 103.463 541.18ZM103.463 540.334C102.059 540.334 101.333 539.314 101.333 537.754C101.333 536.242 102.011 535.186 103.463 535.186C104.891 535.186 105.599 536.194 105.599 537.754C105.599 539.284 104.903 540.334 103.463 540.334ZM110.925 541.18C112.845 541.18 113.997 539.794 113.997 537.754C113.997 535.75 112.869 534.34 110.925 534.34C109.029 534.34 107.859 535.714 107.859 537.754C107.859 539.764 108.993 541.18 110.925 541.18ZM110.925 540.334C109.521 540.334 108.795 539.314 108.795 537.754C108.795 536.242 109.473 535.186 110.925 535.186C112.353 535.186 113.061 536.194 113.061 537.754C113.061 539.284 112.365 540.334 110.925 540.334ZM120.222 532.36V535.282C119.748 534.694 119.058 534.34 118.158 534.34C116.382 534.34 115.32 535.822 115.32 537.754C115.32 539.698 116.376 541.18 118.194 541.18C119.136 541.18 119.85 540.766 120.318 540.094V541H121.11V532.36H120.222ZM118.284 540.358C116.934 540.358 116.256 539.23 116.256 537.754C116.256 536.29 116.91 535.162 118.302 535.162C119.652 535.162 120.318 536.23 120.318 537.754C120.318 539.254 119.664 540.358 118.284 540.358ZM90.5302 548.36V551.282C90.0562 550.694 89.3662 550.34 88.4662 550.34C86.6902 550.34 85.6282 551.822 85.6282 553.754C85.6282 555.698 86.6842 557.18 88.5022 557.18C89.4442 557.18 90.1582 556.766 90.6262 556.094V557H91.4182V548.36H90.5302ZM88.5922 556.358C87.2422 556.358 86.5642 555.23 86.5642 553.754C86.5642 552.29 87.2182 551.162 88.6102 551.162C89.9602 551.162 90.6262 552.23 90.6262 553.754C90.6262 555.254 89.9722 556.358 88.5922 556.358ZM94.0435 554.006H99.1495C99.2155 551.72 98.0875 550.34 96.1675 550.34C94.2955 550.34 93.1015 551.666 93.1015 553.79C93.1015 555.842 94.3135 557.18 96.2035 557.18C97.4575 557.18 98.5075 556.538 99.0235 555.404L98.2015 555.086C97.7995 555.896 97.0915 556.334 96.1675 556.334C94.8775 556.334 94.1155 555.488 94.0435 554.006ZM96.1915 551.15C97.3975 551.15 98.0875 551.87 98.2255 553.268H94.0615C94.1995 551.906 94.9435 551.15 96.1915 551.15ZM100.961 557H101.843V548.18H100.961V557ZM104.122 549.29H105.004V548.3H104.122V549.29ZM104.122 557H105.004V550.52H104.122V557ZM108.915 557H109.827L112.179 550.52H111.273L109.371 555.848L107.457 550.52H106.563L108.915 557ZM113.964 554.006H119.07C119.136 551.72 118.008 550.34 116.088 550.34C114.216 550.34 113.022 551.666 113.022 553.79C113.022 555.842 114.234 557.18 116.124 557.18C117.378 557.18 118.428 556.538 118.944 555.404L118.122 555.086C117.72 555.896 117.012 556.334 116.088 556.334C114.798 556.334 114.036 555.488 113.964 554.006ZM116.112 551.15C117.318 551.15 118.008 551.87 118.146 553.268H113.982C114.12 551.906 114.864 551.15 116.112 551.15ZM122.057 550.946C121.871 551.09 121.691 551.3 121.553 551.546V550.52H120.761V557H121.643V553.766C121.643 552.992 121.751 552.152 122.399 551.642C122.867 551.258 123.467 551.234 123.947 551.348V550.52C123.377 550.376 122.567 550.502 122.057 550.946ZM129.75 550.52L127.782 555.848L125.658 550.52H124.722L127.356 556.988L126.288 559.88H127.17L130.65 550.52H129.75Z" fill="#414141"></path> <rect x="152" y="460" width="56" height="56" rx="26" fill="#009E8E"></rect> <path fill-rule="evenodd" clip-rule="evenodd" d="M191.396 476.895C190.875 476.375 190.031 476.375 189.51 476.895L182.359 484.047H166.667V486.714H166.678C166.968 493.822 172.822 499.495 180 499.495C187.179 499.495 193.033 493.822 193.322 486.714H193.334V484.047H186.13L191.396 478.781C191.917 478.26 191.917 477.416 191.396 476.895ZM182.902 486.714C182.908 486.714 182.914 486.714 182.92 486.714H190.653C190.366 492.348 185.706 496.828 180 496.828C174.295 496.828 169.635 492.348 169.348 486.714H182.902Z" fill="#ABFBF3"></path> <path d="M153.62 541H154.502V533.206H157.52V532.36H150.602V533.206H153.62V541ZM162.912 535.636C162.57 534.796 161.706 534.34 160.524 534.34C159.096 534.34 158.184 535.012 157.884 536.17L158.742 536.422C158.988 535.558 159.624 535.174 160.512 535.174C161.742 535.174 162.228 535.738 162.24 536.908C161.376 537.028 160.164 537.166 159.288 537.376C158.322 537.634 157.638 538.198 157.638 539.26C157.638 540.292 158.382 541.18 159.852 541.18C160.956 541.18 161.814 540.748 162.318 539.926V541H163.104V536.974C163.104 536.494 163.068 536.014 162.912 535.636ZM159.954 540.418C158.91 540.418 158.52 539.824 158.52 539.26C158.52 538.558 159.09 538.246 159.642 538.084C160.356 537.886 161.376 537.784 162.228 537.682C162.228 537.976 162.216 538.396 162.144 538.714C161.976 539.692 161.19 540.418 159.954 540.418ZM165.02 541H165.914V537.88L169.094 541H170.378L166.946 537.76L169.982 534.52H168.806L165.914 537.64V532.36H165.026L165.02 541ZM171.804 538.006H176.91C176.976 535.72 175.848 534.34 173.928 534.34C172.056 534.34 170.862 535.666 170.862 537.79C170.862 539.842 172.074 541.18 173.964 541.18C175.218 541.18 176.268 540.538 176.784 539.404L175.962 539.086C175.56 539.896 174.852 540.334 173.928 540.334C172.638 540.334 171.876 539.488 171.804 538.006ZM173.952 535.15C175.158 535.15 175.848 535.87 175.986 537.268H171.822C171.96 535.906 172.704 535.15 173.952 535.15ZM186.278 535.636C185.936 534.796 185.072 534.34 183.89 534.34C182.462 534.34 181.55 535.012 181.25 536.17L182.108 536.422C182.354 535.558 182.99 535.174 183.878 535.174C185.108 535.174 185.594 535.738 185.606 536.908C184.742 537.028 183.53 537.166 182.654 537.376C181.688 537.634 181.004 538.198 181.004 539.26C181.004 540.292 181.748 541.18 183.218 541.18C184.322 541.18 185.18 540.748 185.684 539.926V541H186.47V536.974C186.47 536.494 186.434 536.014 186.278 535.636ZM183.32 540.418C182.276 540.418 181.886 539.824 181.886 539.26C181.886 538.558 182.456 538.246 183.008 538.084C183.722 537.886 184.742 537.784 185.594 537.682C185.594 537.976 185.582 538.396 185.51 538.714C185.342 539.692 184.556 540.418 183.32 540.418ZM189.538 541H190.306L191.92 535.84L193.54 541H194.308L196.288 534.52H195.412L193.864 539.554L192.322 534.52H191.518L189.976 539.554L188.44 534.52L187.558 534.514L189.538 541ZM202.279 535.636C201.937 534.796 201.073 534.34 199.891 534.34C198.463 534.34 197.551 535.012 197.251 536.17L198.109 536.422C198.355 535.558 198.991 535.174 199.879 535.174C201.109 535.174 201.595 535.738 201.607 536.908C200.743 537.028 199.531 537.166 198.655 537.376C197.689 537.634 197.005 538.198 197.005 539.26C197.005 540.292 197.749 541.18 199.219 541.18C200.323 541.18 201.181 540.748 201.685 539.926V541H202.471V536.974C202.471 536.494 202.435 536.014 202.279 535.636ZM199.321 540.418C198.277 540.418 197.887 539.824 197.887 539.26C197.887 538.558 198.457 538.246 199.009 538.084C199.723 537.886 200.743 537.784 201.595 537.682C201.595 537.976 201.583 538.396 201.511 538.714C201.343 539.692 200.557 540.418 199.321 540.418ZM208.416 534.52L206.448 539.848L204.324 534.52H203.388L206.022 540.988L204.954 543.88H205.836L209.316 534.52H208.416Z" fill="#414141"></path> <rect x="224" y="460" width="56" height="56" rx="26" fill="#E1125E"></rect> <path d="M244 475.333C243.263 475.333 242.666 475.93 242.666 476.667V479.333C242.666 480.07 243.263 480.667 244 480.667C244.736 480.667 245.333 480.07 245.333 479.333V476.667C245.333 475.93 244.736 475.333 244 475.333Z" fill="#FAC1D6"></path> <path fill-rule="evenodd" clip-rule="evenodd" d="M253.333 500.667C257.297 500.667 260.588 497.784 261.222 494H261.333C264.279 494 266.666 491.612 266.666 488.667C266.666 485.721 264.279 483.333 261.333 483.333V482H237.333V492.667C237.333 497.085 240.915 500.667 245.333 500.667H253.333ZM240 484.667V492.667C240 495.612 242.387 498 245.333 498H253.333C256.279 498 258.666 495.612 258.666 492.667V484.667H240ZM264 488.667C264 490.139 262.806 491.333 261.333 491.333V486C262.806 486 264 487.194 264 488.667Z" fill="#FAC1D6"></path> <path d="M248 476.667C248 475.93 248.597 475.333 249.333 475.333C250.069 475.333 250.666 475.93 250.666 476.667V479.333C250.666 480.07 250.069 480.667 249.333 480.667C248.597 480.667 248 480.07 248 479.333V476.667Z" fill="#FAC1D6"></path> <path d="M254.666 475.333C253.93 475.333 253.333 475.93 253.333 476.667V479.333C253.333 480.07 253.93 480.667 254.666 480.667C255.403 480.667 256 480.07 256 479.333V476.667C256 475.93 255.403 475.333 254.666 475.333Z" fill="#FAC1D6"></path> <path d="M233.934 541H234.816V537.1H239.592V541H240.468V532.36H239.592V536.254H234.816V532.36H233.934V541ZM245.215 541.18C247.135 541.18 248.287 539.794 248.287 537.754C248.287 535.75 247.159 534.34 245.215 534.34C243.319 534.34 242.149 535.714 242.149 537.754C242.149 539.764 243.283 541.18 245.215 541.18ZM245.215 540.334C243.811 540.334 243.085 539.314 243.085 537.754C243.085 536.242 243.763 535.186 245.215 535.186C246.643 535.186 247.351 536.194 247.351 537.754C247.351 539.284 246.655 540.334 245.215 540.334ZM251.513 535.276H253.499V534.52H251.513V532.72H250.637V534.52H249.251V535.276H250.637V538.654C250.637 539.29 250.607 539.752 250.841 540.226C251.267 541.09 252.401 541.228 253.499 541V540.226C252.569 540.376 251.933 540.322 251.645 539.782C251.489 539.506 251.513 539.164 251.513 538.618V535.276ZM255.483 538.006H260.589C260.655 535.72 259.527 534.34 257.607 534.34C255.735 534.34 254.541 535.666 254.541 537.79C254.541 539.842 255.753 541.18 257.643 541.18C258.897 541.18 259.947 540.538 260.463 539.404L259.641 539.086C259.239 539.896 258.531 540.334 257.607 540.334C256.317 540.334 255.555 539.488 255.483 538.006ZM257.631 535.15C258.837 535.15 259.527 535.87 259.665 537.268H255.501C255.639 535.906 256.383 535.15 257.631 535.15ZM262.4 541H263.282V532.18H262.4V541ZM267.859 541.174C269.449 541.174 270.415 540.43 270.415 539.206C270.415 538.204 269.857 537.742 268.069 537.286C266.539 536.902 266.173 536.662 266.173 536.146C266.173 535.534 266.809 535.126 267.727 535.144C268.699 535.162 269.377 535.63 269.503 536.392L270.403 536.23C270.271 535.102 269.203 534.34 267.739 534.34C266.275 534.34 265.279 535.084 265.279 536.188C265.279 537.094 265.819 537.52 267.577 537.994C269.221 538.438 269.497 538.618 269.497 539.218C269.497 539.926 268.891 540.37 267.907 540.37C266.899 540.37 266.167 539.902 265.981 539.164L265.081 539.314C265.303 540.484 266.341 541.174 267.859 541.174Z" fill="#414141"></path> <rect x="296" y="460" width="56" height="56" rx="26" fill="#ED9526"></rect> <path d="M318.666 488C318.666 489.473 317.472 490.667 316 490.667C314.527 490.667 313.333 489.473 313.333 488C313.333 486.527 314.527 485.333 316 485.333C317.472 485.333 318.666 486.527 318.666 488Z" fill="#FBE5C9"></path> <path d="M326.666 488C326.666 489.473 325.472 490.667 324 490.667C322.527 490.667 321.333 489.473 321.333 488C321.333 486.527 322.527 485.333 324 485.333C325.472 485.333 326.666 486.527 326.666 488Z" fill="#FBE5C9"></path> <path d="M332 490.667C333.472 490.667 334.666 489.473 334.666 488C334.666 486.527 333.472 485.333 332 485.333C330.527 485.333 329.333 486.527 329.333 488C329.333 489.473 330.527 490.667 332 490.667Z" fill="#FBE5C9"></path> <path d="M310.091 541H310.937V534.328L314.009 541H314.579L317.657 534.328V540.994H318.497V532.36H317.675L314.297 539.626L310.901 532.36H310.091V541ZM323.247 541.18C325.167 541.18 326.319 539.794 326.319 537.754C326.319 535.75 325.191 534.34 323.247 534.34C321.351 534.34 320.181 535.714 320.181 537.754C320.181 539.764 321.315 541.18 323.247 541.18ZM323.247 540.334C321.843 540.334 321.117 539.314 321.117 537.754C321.117 536.242 321.795 535.186 323.247 535.186C324.675 535.186 325.383 536.194 325.383 537.754C325.383 539.284 324.687 540.334 323.247 540.334ZM329.298 534.946C329.112 535.09 328.932 535.3 328.794 535.546V534.52H328.002V541H328.884V537.766C328.884 536.992 328.992 536.152 329.64 535.642C330.108 535.258 330.708 535.234 331.188 535.348V534.52C330.618 534.376 329.808 534.502 329.298 534.946ZM333.151 538.006H338.257C338.323 535.72 337.195 534.34 335.275 534.34C333.403 534.34 332.209 535.666 332.209 537.79C332.209 539.842 333.421 541.18 335.311 541.18C336.565 541.18 337.615 540.538 338.131 539.404L337.309 539.086C336.907 539.896 336.199 540.334 335.275 540.334C333.985 540.334 333.223 539.488 333.151 538.006ZM335.299 535.15C336.505 535.15 337.195 535.87 337.333 537.268H333.169C333.307 535.906 334.051 535.15 335.299 535.15Z" fill="#414141"></path> <rect x="9" y="600" width="16" height="16" rx="4" fill="#C5DCFA"></rect> <rect x="33" y="600" width="48" height="16" rx="4" fill="#C5DCFA"></rect> <rect x="89" y="600" width="96" height="16" rx="4" fill="#C5DCFA"></rect> <rect x="9" y="632" width="32" height="32" rx="4" fill="#A1A1A1"></rect> <rect x="49" y="632" width="112" height="32" rx="4" fill="#A1A1A1"></rect> <rect x="169" y="632" width="176" height="32" rx="4" fill="#A1A1A1"></rect> <rect x="9" y="672" width="32" height="32" rx="4" fill="#E0E0E0"></rect> <rect x="49" y="672" width="112" height="32" rx="4" fill="#E0E0E0"></rect> <rect x="169" y="672" width="176" height="32" rx="4" fill="#E0E0E0"></rect> <rect x="9" y="712" width="32" height="32" rx="4" fill="#E0E0E0"></rect> <rect x="49" y="712" width="112" height="32" rx="4" fill="#E0E0E0"></rect> <rect x="169" y="712" width="176" height="32" rx="4" fill="#E0E0E0"></rect> <rect x="8" y="784" width="56" height="56" rx="26" fill="white"></rect> <path d="M22.667 804C22.667 803.264 23.2639 802.667 24.0003 802.667H48.0003C48.7367 802.667 49.3337 803.264 49.3337 804C49.3337 804.736 48.7367 805.333 48.0003 805.333H24.0003C23.2639 805.333 22.667 804.736 22.667 804Z" fill="black"></path> <path d="M22.667 812.043C22.667 811.307 23.2639 810.71 24.0003 810.71H48.0003C48.7367 810.71 49.3337 811.307 49.3337 812.043C49.3337 812.779 48.7367 813.376 48.0003 813.376H24.0003C23.2639 813.376 22.667 812.779 22.667 812.043Z" fill="black"></path> <path d="M24.0003 818.753C23.2639 818.753 22.667 819.35 22.667 820.086C22.667 820.822 23.2639 821.419 24.0003 821.419H48.0003C48.7367 821.419 49.3337 820.822 49.3337 820.086C49.3337 819.35 48.7367 818.753 48.0003 818.753H24.0003Z" fill="black"></path> <rect opacity="0.5" x="68" y="788" width="144" height="48" rx="8" fill="#E0E0E0"></rect> <path d="M85.048 809.12C83.768 809.12 82.8 809.656 82.168 810.552V809.36H81.112V821.84H82.296V816.968C82.92 817.76 83.832 818.24 85 818.24C87.424 818.24 88.832 816.264 88.832 813.672C88.832 811.096 87.416 809.12 85.048 809.12ZM84.88 817.144C83.04 817.144 82.168 815.672 82.168 813.672C82.168 811.64 83.056 810.216 84.856 810.216C86.712 810.216 87.584 811.72 87.584 813.672C87.584 815.64 86.68 817.144 84.88 817.144ZM91.0175 807.72H92.1935V806.4H91.0175V807.72ZM91.0175 818H92.1935V809.36H91.0175V818ZM94.0607 818H101.269V816.904H96.0047L101.573 809.632V809.36H94.4767V810.456H99.6367L94.0607 817.752V818ZM102.798 818H110.006V816.904H104.742L110.31 809.632V809.36H103.214V810.456H108.374L102.798 817.752V818Z" fill="black"></path> <rect x="113" y="800" width="3" height="24" rx="1" fill="#1672EC"></rect> <rect width="56" height="56" rx="26" transform="matrix(-1 0 0 1 272 784)" fill="white"></rect> <path d="M251.699 802.415C252.22 801.894 253.064 801.894 253.585 802.415C254.106 802.936 254.106 803.78 253.585 804.3L245.885 812L253.585 819.7C254.106 820.22 254.106 821.065 253.585 821.585C253.064 822.106 252.22 822.106 251.699 821.585L244 813.886L236.3 821.585C235.78 822.106 234.935 822.106 234.415 821.585C233.894 821.065 233.894 820.22 234.415 819.7L242.114 812L234.415 804.3C233.894 803.78 233.894 802.936 234.415 802.415C234.935 801.894 235.779 801.894 236.3 802.415L244 810.114L251.699 802.415Z" fill="#1672EC"></path> <line x1="284" y1="793" x2="284" y2="831" stroke="#E0E0E0" stroke-width="2" stroke-linecap="round" stroke-linejoin="round"></line> <rect x="296" y="784" width="56" height="56" rx="26" fill="white"></rect> <path d="M325.83 815.629L327.712 817.519L336.215 809.052L327.748 800.548L325.858 802.43L330.894 807.487L317.153 807.457C314.207 807.451 311.815 809.834 311.808 812.779L311.785 823.446L314.452 823.452L314.475 812.785C314.478 811.312 315.674 810.121 317.147 810.124L331.328 810.155L325.83 815.629Z" fill="#0A3977"></path> <line x1="8" y1="853.5" x2="352" y2="853.5" stroke="#E0E0E0"></line> <rect x="16" y="875" width="40" height="40" rx="20" fill="white"></rect> <path d="M34 890H36V895H41V897H34V890Z" fill="#A1A1A1"></path> <path fill-rule="evenodd" clip-rule="evenodd" d="M46 895C46 900.523 41.5228 905 36 905C30.4772 905 26 900.523 26 895C26 889.477 30.4772 885 36 885C41.5228 885 46 889.477 46 895ZM44 895C44 899.418 40.4183 903 36 903C31.5817 903 28 899.418 28 895C28 890.582 31.5817 887 36 887C40.4183 887 44 890.582 44 895Z" fill="#A1A1A1"></path> <g clip-path="url(#clip1)"> <path d="M69.12 901H71.048V896.976H73.88C74.088 896.976 74.504 896.96 74.8 896.912C76.784 896.608 77.736 895.128 77.736 893.232C77.736 891.328 76.8 889.856 74.8 889.544C74.504 889.496 74.104 889.48 73.88 889.48H69.12V901ZM71.048 895.176V891.288H73.8C74.016 891.288 74.304 891.304 74.528 891.36C75.488 891.608 75.792 892.496 75.792 893.232C75.792 893.968 75.488 894.856 74.528 895.096C74.304 895.16 74.016 895.176 73.8 895.176H71.048ZM79.5788 891.048H81.5068V889.28H79.5788V891.048ZM79.5788 901H81.5068V892.36H79.5788V901ZM83.1831 901H90.5671V899.312H86.1991L90.7591 892.632V892.36H83.6471V894.048H87.7591L83.1831 900.736V901ZM91.7944 901H99.1784V899.312H94.8104L99.3704 892.632V892.36H92.2584V894.048H96.3704L91.7944 900.736V901ZM101.982 897.008H108.79C108.878 893.96 107.374 892.12 104.814 892.12C102.318 892.12 100.726 893.888 100.726 896.72C100.726 899.456 102.342 901.24 104.862 901.24C106.534 901.24 107.934 900.384 108.622 898.872L107.526 898.448C106.99 899.528 106.046 900.112 104.814 900.112C103.094 900.112 102.078 898.984 101.982 897.008ZM104.846 893.2C106.454 893.2 107.374 894.16 107.558 896.024H102.006C102.19 894.208 103.182 893.2 104.846 893.2ZM112.562 892.928C112.314 893.12 112.074 893.4 111.89 893.728V892.36H110.834V901H112.01V896.688C112.01 895.656 112.154 894.536 113.018 893.856C113.642 893.344 114.442 893.312 115.082 893.464V892.36C114.322 892.168 113.242 892.336 112.562 892.928ZM117.028 890.72H118.204V889.4H117.028V890.72ZM117.028 901H118.204V892.36H117.028V901ZM127.423 893.848C126.967 892.728 125.815 892.12 124.239 892.12C122.335 892.12 121.119 893.016 120.719 894.56L121.863 894.896C122.191 893.744 123.039 893.232 124.223 893.232C125.863 893.232 126.511 893.984 126.527 895.544C125.375 895.704 123.759 895.888 122.591 896.168C121.303 896.512 120.391 897.264 120.391 898.68C120.391 900.056 121.383 901.24 123.343 901.24C124.815 901.24 125.959 900.664 126.631 899.568V901H127.679V895.632C127.679 894.992 127.631 894.352 127.423 893.848ZM123.479 900.224C122.087 900.224 121.567 899.432 121.567 898.68C121.567 897.744 122.327 897.328 123.063 897.112C124.015 896.848 125.375 896.712 126.511 896.576C126.511 896.968 126.495 897.528 126.399 897.952C126.175 899.256 125.127 900.224 123.479 900.224Z" fill="black"></path> </g> <path d="M278.784 901.24C281.456 901.24 283.176 899.76 283.808 897.456L282.608 897.144C282.12 898.96 280.848 900.112 278.784 900.112C276.08 900.112 274.704 898.12 274.72 895.24C274.744 892.36 276.08 890.368 278.784 890.368C280.848 890.368 282.12 891.52 282.608 893.336L283.808 893.024C283.176 890.72 281.456 889.24 278.784 889.24C275.344 889.24 273.48 891.696 273.48 895.24C273.48 898.784 275.344 901.24 278.784 901.24ZM286.002 901H287.178V889.24H286.002V901ZM290.621 897.008H297.429C297.517 893.96 296.013 892.12 293.453 892.12C290.957 892.12 289.365 893.888 289.365 896.72C289.365 899.456 290.981 901.24 293.501 901.24C295.173 901.24 296.573 900.384 297.261 898.872L296.165 898.448C295.629 899.528 294.685 900.112 293.453 900.112C291.733 900.112 290.717 898.984 290.621 897.008ZM293.485 893.2C295.093 893.2 296.013 894.16 296.197 896.024H290.645C290.829 894.208 291.821 893.2 293.485 893.2ZM305.869 893.848C305.413 892.728 304.261 892.12 302.685 892.12C300.781 892.12 299.565 893.016 299.165 894.56L300.309 894.896C300.637 893.744 301.485 893.232 302.669 893.232C304.309 893.232 304.957 893.984 304.973 895.544C303.821 895.704 302.205 895.888 301.037 896.168C299.749 896.512 298.837 897.264 298.837 898.68C298.837 900.056 299.829 901.24 301.789 901.24C303.261 901.24 304.405 900.664 305.077 899.568V901H306.125V895.632C306.125 894.992 306.077 894.352 305.869 893.848ZM301.925 900.224C300.533 900.224 300.013 899.432 300.013 898.68C300.013 897.744 300.773 897.328 301.509 897.112C302.461 896.848 303.821 896.712 304.957 896.576C304.957 896.968 304.941 897.528 304.845 897.952C304.621 899.256 303.573 900.224 301.925 900.224ZM310.204 892.928C309.956 893.12 309.716 893.4 309.532 893.728V892.36H308.476V901H309.652V896.688C309.652 895.656 309.796 894.536 310.66 893.856C311.284 893.344 312.084 893.312 312.724 893.464V892.36C311.964 892.168 310.884 892.336 310.204 892.928Z" fill="#A1A1A1"></path> <path fill-rule="evenodd" clip-rule="evenodd" d="M323.5 895.899C322.719 896.681 322.719 897.947 323.5 898.728L327.358 902.586H324.086C323.533 902.586 323.086 903.033 323.086 903.586C323.086 904.138 323.533 904.586 324.086 904.586H340.086C340.638 904.586 341.086 904.138 341.086 903.586C341.086 903.033 340.638 902.586 340.086 902.586H330.956L340.47 893.071C341.251 892.29 341.251 891.024 340.47 890.243L336.228 886C335.447 885.219 334.18 885.219 333.399 886L323.5 895.899ZM327.826 894.402L324.914 897.314L329.157 901.556L332.068 898.645L327.826 894.402ZM329.24 892.988L333.483 897.231L339.056 891.657L334.814 887.414L329.24 892.988Z" fill="#C0C0C0"></path> <rect x="16" y="937" width="40" height="40" rx="20" fill="white"></rect> <path d="M34 952H36V957H41V959H34V952Z" fill="#A1A1A1"></path> <path fill-rule="evenodd" clip-rule="evenodd" d="M46 957C46 962.523 41.5228 967 36 967C30.4772 967 26 962.523 26 957C26 951.477 30.4772 947 36 947C41.5228 947 46 951.477 46 957ZM44 957C44 961.418 40.4183 965 36 965C31.5817 965 28 961.418 28 957C28 952.582 31.5817 949 36 949C40.4183 949 44 952.582 44 957Z" fill="#A1A1A1"></path> <g clip-path="url(#clip2)"> <path d="M69.12 963H71.048V958.976H73.88C74.088 958.976 74.504 958.96 74.8 958.912C76.784 958.608 77.736 957.128 77.736 955.232C77.736 953.328 76.8 951.856 74.8 951.544C74.504 951.496 74.104 951.48 73.88 951.48H69.12V963ZM71.048 957.176V953.288H73.8C74.016 953.288 74.304 953.304 74.528 953.36C75.488 953.608 75.792 954.496 75.792 955.232C75.792 955.968 75.488 956.856 74.528 957.096C74.304 957.16 74.016 957.176 73.8 957.176H71.048ZM79.5788 953.048H81.5068V951.28H79.5788V953.048ZM79.5788 963H81.5068V954.36H79.5788V963ZM83.1831 963H90.5671V961.312H86.1991L90.7591 954.632V954.36H83.6471V956.048H87.7591L83.1831 962.736V963ZM91.7944 963H99.1784V961.312H94.8104L99.3704 954.632V954.36H92.2584V956.048H96.3704L91.7944 962.736V963ZM107.758 955.848C107.302 954.728 106.15 954.12 104.574 954.12C102.67 954.12 101.454 955.016 101.054 956.56L102.198 956.896C102.526 955.744 103.374 955.232 104.558 955.232C106.198 955.232 106.846 955.984 106.862 957.544C105.71 957.704 104.094 957.888 102.926 958.168C101.638 958.512 100.726 959.264 100.726 960.68C100.726 962.056 101.718 963.24 103.678 963.24C105.15 963.24 106.294 962.664 106.966 961.568V963H108.014V957.632C108.014 956.992 107.966 956.352 107.758 955.848ZM103.814 962.224C102.422 962.224 101.902 961.432 101.902 960.68C101.902 959.744 102.662 959.328 103.398 959.112C104.35 958.848 105.71 958.712 106.846 958.576C106.846 958.968 106.83 959.528 106.734 959.952C106.51 961.256 105.462 962.224 103.814 962.224ZM113.837 963H115.765V958.976H118.597C118.805 958.976 119.221 958.96 119.517 958.912C121.501 958.608 122.453 957.128 122.453 955.232C122.453 953.328 121.517 951.856 119.517 951.544C119.221 951.496 118.821 951.48 118.597 951.48H113.837V963ZM115.765 957.176V953.288H118.517C118.733 953.288 119.021 953.304 119.245 953.36C120.205 953.608 120.509 954.496 120.509 955.232C120.509 955.968 120.205 956.856 119.245 957.096C119.021 957.16 118.733 957.176 118.517 957.176H115.765ZM124.296 953.048H126.224V951.28H124.296V953.048ZM124.296 963H126.224V954.36H124.296V963ZM127.9 963H135.284V961.312H130.916L135.476 954.632V954.36H128.364V956.048H132.476L127.9 962.736V963ZM136.511 963H143.895V961.312H139.527L144.087 954.632V954.36H136.975V956.048H141.087L136.511 962.736V963ZM151.979 951.48V955.376C151.347 954.592 150.427 954.12 149.227 954.12C146.859 954.12 145.443 956.096 145.443 958.672C145.443 961.264 146.851 963.24 149.275 963.24C150.531 963.24 151.483 962.688 152.107 961.792V963H153.163V951.48H151.979ZM149.395 962.144C147.595 962.144 146.691 960.64 146.691 958.672C146.691 956.72 147.563 955.216 149.419 955.216C151.219 955.216 152.107 956.64 152.107 958.672C152.107 960.672 151.235 962.144 149.395 962.144ZM162.228 955.848C161.772 954.728 160.62 954.12 159.044 954.12C157.14 954.12 155.924 955.016 155.524 956.56L156.668 956.896C156.996 955.744 157.844 955.232 159.028 955.232C160.668 955.232 161.316 955.984 161.332 957.544C160.18 957.704 158.564 957.888 157.396 958.168C156.108 958.512 155.196 959.264 155.196 960.68C155.196 962.056 156.188 963.24 158.148 963.24C159.62 963.24 160.764 962.664 161.436 961.568V963H162.484V957.632C162.484 956.992 162.436 956.352 162.228 955.848ZM158.284 962.224C156.892 962.224 156.372 961.432 156.372 960.68C156.372 959.744 157.132 959.328 157.868 959.112C158.82 958.848 160.18 958.712 161.316 958.576C161.316 958.968 161.3 959.528 161.204 959.952C160.98 961.256 159.932 962.224 158.284 962.224ZM166.891 955.368H169.539V954.36H166.891V951.96H165.723V954.36H163.875V955.368H165.723V959.872C165.723 960.72 165.683 961.336 165.995 961.968C166.563 963.12 168.075 963.304 169.539 963V961.968C168.299 962.168 167.451 962.096 167.067 961.376C166.859 961.008 166.891 960.552 166.891 959.824V955.368ZM178.062 955.848C177.606 954.728 176.454 954.12 174.878 954.12C172.974 954.12 171.758 955.016 171.358 956.56L172.502 956.896C172.83 955.744 173.678 955.232 174.862 955.232C176.502 955.232 177.15 955.984 177.166 957.544C176.014 957.704 174.398 957.888 173.23 958.168C171.942 958.512 171.03 959.264 171.03 960.68C171.03 962.056 172.022 963.24 173.982 963.24C175.454 963.24 176.598 962.664 177.27 961.568V963H178.318V957.632C178.318 956.992 178.27 956.352 178.062 955.848ZM174.118 962.224C172.726 962.224 172.206 961.432 172.206 960.68C172.206 959.744 172.966 959.328 173.702 959.112C174.654 958.848 176.014 958.712 177.15 958.576C177.15 958.968 177.134 959.528 177.038 959.952C176.814 961.256 175.766 962.224 174.118 962.224Z" fill="black"></path> </g> <path d="M278.784 963.24C281.456 963.24 283.176 961.76 283.808 959.456L282.608 959.144C282.12 960.96 280.848 962.112 278.784 962.112C276.08 962.112 274.704 960.12 274.72 957.24C274.744 954.36 276.08 952.368 278.784 952.368C280.848 952.368 282.12 953.52 282.608 955.336L283.808 955.024C283.176 952.72 281.456 951.24 278.784 951.24C275.344 951.24 273.48 953.696 273.48 957.24C273.48 960.784 275.344 963.24 278.784 963.24ZM286.002 963H287.178V951.24H286.002V963ZM290.621 959.008H297.429C297.517 955.96 296.013 954.12 293.453 954.12C290.957 954.12 289.365 955.888 289.365 958.72C289.365 961.456 290.981 963.24 293.501 963.24C295.173 963.24 296.573 962.384 297.261 960.872L296.165 960.448C295.629 961.528 294.685 962.112 293.453 962.112C291.733 962.112 290.717 960.984 290.621 959.008ZM293.485 955.2C295.093 955.2 296.013 956.16 296.197 958.024H290.645C290.829 956.208 291.821 955.2 293.485 955.2ZM305.869 955.848C305.413 954.728 304.261 954.12 302.685 954.12C300.781 954.12 299.565 955.016 299.165 956.56L300.309 956.896C300.637 955.744 301.485 955.232 302.669 955.232C304.309 955.232 304.957 955.984 304.973 957.544C303.821 957.704 302.205 957.888 301.037 958.168C299.749 958.512 298.837 959.264 298.837 960.68C298.837 962.056 299.829 963.24 301.789 963.24C303.261 963.24 304.405 962.664 305.077 961.568V963H306.125V957.632C306.125 956.992 306.077 956.352 305.869 955.848ZM301.925 962.224C300.533 962.224 300.013 961.432 300.013 960.68C300.013 959.744 300.773 959.328 301.509 959.112C302.461 958.848 303.821 958.712 304.957 958.576C304.957 958.968 304.941 959.528 304.845 959.952C304.621 961.256 303.573 962.224 301.925 962.224ZM310.204 954.928C309.956 955.12 309.716 955.4 309.532 955.728V954.36H308.476V963H309.652V958.688C309.652 957.656 309.796 956.536 310.66 955.856C311.284 955.344 312.084 955.312 312.724 955.464V954.36C311.964 954.168 310.884 954.336 310.204 954.928Z" fill="#A1A1A1"></path> <path d="M326.226 949.811C325.835 949.421 325.202 949.421 324.811 949.811C324.421 950.202 324.421 950.835 324.811 951.225L330.586 957L324.812 962.775C324.421 963.165 324.421 963.798 324.812 964.189C325.202 964.579 325.835 964.579 326.226 964.189L332 958.414L337.775 964.189C338.166 964.579 338.799 964.579 339.189 964.189C339.58 963.798 339.58 963.165 339.189 962.775L333.415 957L339.189 951.225C339.58 950.835 339.58 950.202 339.189 949.811C338.799 949.421 338.166 949.421 337.775 949.811L332 955.586L326.226 949.811Z" fill="#C0C0C0"></path> <g filter="url(#filter4_dd)"> <rect x="8" y="992" width="344" height="54" rx="8" fill="white"></rect> <rect x="16" y="999" width="40" height="40" rx="20" fill="white"></rect> <path d="M34 1014H36V1019H41V1021H34V1014Z" fill="#A1A1A1"></path> <path fill-rule="evenodd" clip-rule="evenodd" d="M46 1019C46 1024.52 41.5228 1029 36 1029C30.4772 1029 26 1024.52 26 1019C26 1013.48 30.4772 1009 36 1009C41.5228 1009 46 1013.48 46 1019ZM44 1019C44 1023.42 40.4183 1027 36 1027C31.5817 1027 28 1023.42 28 1019C28 1014.58 31.5817 1011 36 1011C40.4183 1011 44 1014.58 44 1019Z" fill="#A1A1A1"></path> <path d="M69.12 1014H70.296V1009.62H73.568C73.784 1009.62 74.088 1009.61 74.376 1009.56C76.168 1009.29 77.184 1007.85 77.184 1006.06C77.184 1004.26 76.176 1002.82 74.376 1002.54C74.088 1002.5 73.792 1002.48 73.568 1002.48H69.12V1014ZM70.296 1008.5V1003.61H73.536C73.728 1003.61 74.008 1003.62 74.248 1003.67C75.432 1003.93 75.976 1004.98 75.976 1006.06C75.976 1007.13 75.432 1008.18 74.248 1008.43C74.008 1008.49 73.728 1008.5 73.536 1008.5H70.296ZM79.7585 1010.01H86.5666C86.6546 1006.96 85.1506 1005.12 82.5905 1005.12C80.0945 1005.12 78.5025 1006.89 78.5025 1009.72C78.5025 1012.46 80.1185 1014.24 82.6385 1014.24C84.3106 1014.24 85.7106 1013.38 86.3986 1011.87L85.3026 1011.45C84.7666 1012.53 83.8226 1013.11 82.5905 1013.11C80.8705 1013.11 79.8545 1011.98 79.7585 1010.01ZM82.6226 1006.2C84.2306 1006.2 85.1506 1007.16 85.3345 1009.02H79.7825C79.9665 1007.21 80.9585 1006.2 82.6226 1006.2ZM92.3043 1005.12C91.0243 1005.12 90.0563 1005.66 89.4243 1006.55V1005.36H88.3683V1017.84H89.5523V1012.97C90.1763 1013.76 91.0883 1014.24 92.2563 1014.24C94.6803 1014.24 96.0884 1012.26 96.0884 1009.67C96.0884 1007.1 94.6723 1005.12 92.3043 1005.12ZM92.1363 1013.14C90.2963 1013.14 89.4243 1011.67 89.4243 1009.67C89.4243 1007.64 90.3123 1006.22 92.1123 1006.22C93.9683 1006.22 94.8404 1007.72 94.8404 1009.67C94.8404 1011.64 93.9363 1013.14 92.1363 1013.14ZM102.042 1005.12C100.762 1005.12 99.7939 1005.66 99.1619 1006.55V1005.36H98.1059V1017.84H99.2899V1012.97C99.9139 1013.76 100.826 1014.24 101.994 1014.24C104.418 1014.24 105.826 1012.26 105.826 1009.67C105.826 1007.1 104.41 1005.12 102.042 1005.12ZM101.874 1013.14C100.034 1013.14 99.1619 1011.67 99.1619 1009.67C99.1619 1007.64 100.05 1006.22 101.85 1006.22C103.706 1006.22 104.578 1007.72 104.578 1009.67C104.578 1011.64 103.674 1013.14 101.874 1013.14ZM108.627 1010.01H115.435C115.523 1006.96 114.019 1005.12 111.459 1005.12C108.963 1005.12 107.371 1006.89 107.371 1009.72C107.371 1012.46 108.987 1014.24 111.507 1014.24C113.179 1014.24 114.579 1013.38 115.267 1011.87L114.171 1011.45C113.635 1012.53 112.691 1013.11 111.459 1013.11C109.739 1013.11 108.723 1011.98 108.627 1010.01ZM111.491 1006.2C113.099 1006.2 114.019 1007.16 114.203 1009.02H108.651C108.835 1007.21 109.827 1006.2 111.491 1006.2ZM119.208 1005.93C118.96 1006.12 118.72 1006.4 118.536 1006.73V1005.36H117.48V1014H118.656V1009.69C118.656 1008.66 118.8 1007.54 119.664 1006.86C120.288 1006.34 121.088 1006.31 121.728 1006.46V1005.36C120.968 1005.17 119.888 1005.34 119.208 1005.93ZM126.966 1014.24C129.526 1014.24 131.062 1012.39 131.062 1009.67C131.062 1007 129.558 1005.12 126.966 1005.12C124.438 1005.12 122.878 1006.95 122.878 1009.67C122.878 1012.35 124.39 1014.24 126.966 1014.24ZM126.966 1013.11C125.094 1013.11 124.126 1011.75 124.126 1009.67C124.126 1007.66 125.03 1006.25 126.966 1006.25C128.87 1006.25 129.814 1007.59 129.814 1009.67C129.814 1011.71 128.886 1013.11 126.966 1013.11ZM137.055 1005.14C135.815 1005.14 134.791 1005.62 134.151 1006.56V1005.36H133.087V1014H134.271V1009.39C134.271 1007.44 135.167 1006.26 136.831 1006.26C138.639 1006.26 139.335 1007.69 139.335 1009.59V1014H140.519V1009.25C140.519 1007.3 139.647 1005.14 137.055 1005.14ZM143.024 1003.72H144.2V1002.4H143.024V1003.72ZM143.024 1014H144.2V1005.36H143.024V1014ZM150.339 1014H152.267V1009.98H155.099C155.307 1009.98 155.723 1009.96 156.019 1009.91C158.003 1009.61 158.955 1008.13 158.955 1006.23C158.955 1004.33 158.019 1002.86 156.019 1002.54C155.723 1002.5 155.323 1002.48 155.099 1002.48H150.339V1014ZM152.267 1008.18V1004.29H155.019C155.235 1004.29 155.523 1004.3 155.747 1004.36C156.707 1004.61 157.011 1005.5 157.011 1006.23C157.011 1006.97 156.707 1007.86 155.747 1008.1C155.523 1008.16 155.235 1008.18 155.019 1008.18H152.267ZM160.798 1004.05H162.726V1002.28H160.798V1004.05ZM160.798 1014H162.726V1005.36H160.798V1014ZM164.402 1014H171.786V1012.31H167.418L171.978 1005.63V1005.36H164.866V1007.05H168.978L164.402 1013.74V1014ZM173.014 1014H180.398V1012.31H176.03L180.59 1005.63V1005.36H173.478V1007.05H177.59L173.014 1013.74V1014ZM188.977 1006.85C188.521 1005.73 187.369 1005.12 185.793 1005.12C183.889 1005.12 182.673 1006.02 182.273 1007.56L183.417 1007.9C183.745 1006.74 184.593 1006.23 185.777 1006.23C187.417 1006.23 188.065 1006.98 188.081 1008.54C186.929 1008.7 185.313 1008.89 184.145 1009.17C182.857 1009.51 181.945 1010.26 181.945 1011.68C181.945 1013.06 182.937 1014.24 184.897 1014.24C186.369 1014.24 187.513 1013.66 188.185 1012.57V1014H189.233V1008.63C189.233 1007.99 189.185 1007.35 188.977 1006.85ZM185.033 1013.22C183.641 1013.22 183.121 1012.43 183.121 1011.68C183.121 1010.74 183.881 1010.33 184.617 1010.11C185.569 1009.85 186.929 1009.71 188.065 1009.58C188.065 1009.97 188.049 1010.53 187.953 1010.95C187.729 1012.26 186.681 1013.22 185.033 1013.22Z" fill="black"></path> <path d="M72.48 1037.21C74.587 1037.21 76.162 1036.12 76.162 1034.25C76.162 1032.34 74.531 1031.84 73.712 1031.61L71.738 1031.03C70.954 1030.8 69.946 1030.46 69.946 1029.44C69.946 1028.44 70.947 1027.69 72.298 1027.7C73.705 1027.71 74.825 1028.54 75.028 1029.85L76.106 1029.66C75.777 1027.84 74.321 1026.72 72.305 1026.72C70.317 1026.71 68.861 1027.78 68.861 1029.48C68.861 1030.83 69.778 1031.53 71.01 1031.9L73.565 1032.66C74.265 1032.87 75.112 1033.25 75.112 1034.29C75.112 1035.48 74.013 1036.22 72.522 1036.22C71.017 1036.22 69.855 1035.44 69.519 1034.13L68.469 1034.3C68.812 1036.1 70.373 1037.21 72.48 1037.21ZM78.5212 1033.51H84.4782C84.5552 1030.84 83.2392 1029.23 80.9992 1029.23C78.8152 1029.23 77.4222 1030.78 77.4222 1033.25C77.4222 1035.65 78.8362 1037.21 81.0412 1037.21C82.5042 1037.21 83.7292 1036.46 84.3312 1035.14L83.3722 1034.77C82.9032 1035.71 82.0772 1036.22 80.9992 1036.22C79.4942 1036.22 78.6052 1035.24 78.5212 1033.51ZM81.0272 1030.17C82.4342 1030.17 83.2392 1031.01 83.4002 1032.65H78.5422C78.7032 1031.06 79.5712 1030.17 81.0272 1030.17ZM91.8631 1030.74C91.4641 1029.76 90.4561 1029.23 89.0771 1029.23C87.4111 1029.23 86.3471 1030.01 85.9971 1031.36L86.9981 1031.66C87.2851 1030.65 88.0271 1030.2 89.0631 1030.2C90.4981 1030.2 91.0651 1030.86 91.0791 1032.23C90.0711 1032.37 88.6571 1032.53 87.6351 1032.77C86.5081 1033.07 85.7101 1033.73 85.7101 1034.97C85.7101 1036.17 86.5781 1037.21 88.2931 1037.21C89.5811 1037.21 90.5821 1036.71 91.1701 1035.75V1037H92.0871V1032.3C92.0871 1031.74 92.0451 1031.18 91.8631 1030.74ZM88.4121 1036.32C87.1941 1036.32 86.7391 1035.63 86.7391 1034.97C86.7391 1034.15 87.4041 1033.79 88.0481 1033.6C88.8811 1033.37 90.0711 1033.25 91.0651 1033.13C91.0651 1033.47 91.0511 1033.96 90.9671 1034.33C90.7711 1035.47 89.8541 1036.32 88.4121 1036.32ZM95.6566 1029.94C95.4396 1030.1 95.2296 1030.35 95.0686 1030.64V1029.44H94.1446V1037H95.1736V1033.23C95.1736 1032.32 95.2996 1031.34 96.0556 1030.75C96.6016 1030.3 97.3016 1030.27 97.8616 1030.41V1029.44C97.1966 1029.27 96.2516 1029.42 95.6566 1029.94ZM102.424 1037.21C103.922 1037.21 105.028 1036.49 105.595 1035.14L104.559 1034.84C104.181 1035.75 103.446 1036.22 102.424 1036.22C100.8 1036.22 99.981 1035.03 99.96 1033.22C99.981 1031.46 100.751 1030.22 102.424 1030.22C103.411 1030.22 104.23 1030.74 104.587 1031.64L105.595 1031.32C105.175 1030.03 103.957 1029.23 102.431 1029.23C100.17 1029.23 98.896 1030.84 98.868 1033.22C98.896 1035.55 100.135 1037.21 102.424 1037.21ZM110.74 1029.25C109.655 1029.25 108.759 1029.67 108.199 1030.49V1026.92H107.268V1037H108.304V1032.97C108.304 1031.26 109.088 1030.23 110.544 1030.23C112.126 1030.23 112.735 1031.48 112.735 1033.14V1037H113.771V1032.84C113.771 1031.14 113.008 1029.25 110.74 1029.25ZM116.502 1033.51H122.459C122.536 1030.84 121.22 1029.23 118.98 1029.23C116.796 1029.23 115.403 1030.78 115.403 1033.25C115.403 1035.65 116.817 1037.21 119.022 1037.21C120.485 1037.21 121.71 1036.46 122.312 1035.14L121.353 1034.77C120.884 1035.71 120.058 1036.22 118.98 1036.22C117.475 1036.22 116.586 1035.24 116.502 1033.51ZM119.008 1030.17C120.415 1030.17 121.22 1031.01 121.381 1032.65H116.523C116.684 1031.06 117.552 1030.17 119.008 1030.17ZM129.546 1026.92V1030.33C128.993 1029.64 128.188 1029.23 127.138 1029.23C125.066 1029.23 123.827 1030.96 123.827 1033.21C123.827 1035.48 125.059 1037.21 127.18 1037.21C128.279 1037.21 129.112 1036.73 129.658 1035.94V1037H130.582V1026.92H129.546ZM127.285 1036.25C125.71 1036.25 124.919 1034.93 124.919 1033.21C124.919 1031.5 125.682 1030.19 127.306 1030.19C128.881 1030.19 129.658 1031.43 129.658 1033.21C129.658 1034.96 128.895 1036.25 127.285 1036.25ZM138.885 1037H140.6V1026.92H138.885L136.988 1028.05V1029.92L138.885 1028.76V1037ZM149.548 1026.92V1029.81C149.044 1029.44 148.421 1029.23 147.665 1029.23C145.523 1029.23 144.151 1030.92 144.151 1033.22C144.151 1035.49 145.509 1037.21 147.602 1037.21C148.498 1037.21 149.219 1036.93 149.758 1036.44V1037H151.249V1026.92H149.548ZM147.861 1035.7C146.545 1035.7 145.936 1034.61 145.936 1033.22C145.936 1031.85 146.559 1030.74 147.917 1030.74C149.205 1030.74 149.758 1031.74 149.758 1033.22C149.758 1034.68 149.219 1035.7 147.861 1035.7ZM159.22 1037H160.935V1026.92H159.22L157.323 1028.05V1029.92L159.22 1028.76V1037ZM170.569 1031.59C171.15 1031.03 171.437 1030.36 171.437 1029.56C171.437 1027.83 170.114 1026.71 168.252 1026.71C166.39 1026.71 165.074 1027.83 165.074 1029.56C165.074 1030.37 165.389 1031.04 165.956 1031.59C165.207 1032.18 164.815 1033.06 164.815 1034.02C164.815 1035.89 166.25 1037.21 168.252 1037.21C170.261 1037.21 171.71 1035.89 171.71 1034.02C171.71 1033.06 171.304 1032.16 170.569 1031.59ZM168.252 1028.3C169.078 1028.3 169.652 1028.71 169.652 1029.56C169.652 1030.41 169.078 1030.82 168.252 1030.82C167.426 1030.82 166.859 1030.41 166.859 1029.56C166.859 1028.71 167.426 1028.3 168.252 1028.3ZM168.252 1035.62C167.265 1035.62 166.6 1035.07 166.6 1034.02C166.6 1032.99 167.258 1032.42 168.252 1032.42C169.246 1032.42 169.925 1032.99 169.925 1034.02C169.925 1035.07 169.246 1035.62 168.252 1035.62ZM177.62 1029.22C176.528 1029.22 175.702 1029.63 175.149 1030.28V1026.92H173.644V1037H175.352V1033.11C175.352 1031.28 176.262 1030.81 177.123 1030.81C178.733 1030.81 178.887 1032.43 178.887 1033.36V1037H180.595V1032.78C180.595 1031.88 180.406 1029.22 177.62 1029.22ZM191.262 1030.74C190.863 1029.76 189.855 1029.23 188.476 1029.23C186.81 1029.23 185.746 1030.01 185.396 1031.36L186.397 1031.66C186.684 1030.65 187.426 1030.2 188.462 1030.2C189.897 1030.2 190.464 1030.86 190.478 1032.23C189.47 1032.37 188.056 1032.53 187.034 1032.77C185.907 1033.07 185.109 1033.73 185.109 1034.97C185.109 1036.17 185.977 1037.21 187.692 1037.21C188.98 1037.21 189.981 1036.71 190.569 1035.75V1037H191.486V1032.3C191.486 1031.74 191.444 1031.18 191.262 1030.74ZM187.811 1036.32C186.593 1036.32 186.138 1035.63 186.138 1034.97C186.138 1034.15 186.803 1033.79 187.447 1033.6C188.28 1033.37 189.47 1033.25 190.464 1033.13C190.464 1033.47 190.45 1033.96 190.366 1034.33C190.17 1035.47 189.253 1036.32 187.811 1036.32ZM198.955 1029.44V1030.48C198.402 1029.7 197.555 1029.23 196.435 1029.23C194.363 1029.23 193.124 1030.96 193.124 1033.21C193.124 1035.48 194.356 1037.21 196.477 1037.21C197.499 1037.21 198.29 1036.79 198.836 1036.1V1036.88C198.843 1038.66 198.185 1039.57 196.547 1039.57C195.749 1039.57 194.909 1039.23 194.496 1038.39L193.565 1038.9C194.209 1040.08 195.385 1040.57 196.547 1040.57C198.395 1040.57 199.515 1039.79 199.788 1038.1C199.851 1037.71 199.872 1037.33 199.872 1036.89V1029.44H198.955ZM196.582 1036.25C195.007 1036.25 194.216 1034.93 194.216 1033.21C194.216 1031.5 194.979 1030.19 196.603 1030.19C198.178 1030.19 198.955 1031.43 198.955 1033.21C198.955 1034.96 198.192 1036.25 196.582 1036.25ZM205.221 1037.21C207.461 1037.21 208.805 1035.59 208.805 1033.21C208.805 1030.87 207.489 1029.23 205.221 1029.23C203.009 1029.23 201.644 1030.83 201.644 1033.21C201.644 1035.56 202.967 1037.21 205.221 1037.21ZM205.221 1036.22C203.583 1036.22 202.736 1035.03 202.736 1033.21C202.736 1031.45 203.527 1030.22 205.221 1030.22C206.887 1030.22 207.713 1031.39 207.713 1033.21C207.713 1035 206.901 1036.22 205.221 1036.22Z" fill="#818181"></path> <g clip-path="url(#clip3)"> <path d="M308.784 1025.24C311.456 1025.24 313.176 1023.76 313.808 1021.46L312.608 1021.14C312.12 1022.96 310.848 1024.11 308.784 1024.11C306.08 1024.11 304.704 1022.12 304.72 1019.24C304.744 1016.36 306.08 1014.37 308.784 1014.37C310.848 1014.37 312.12 1015.52 312.608 1017.34L313.808 1017.02C313.176 1014.72 311.456 1013.24 308.784 1013.24C305.344 1013.24 303.48 1015.7 303.48 1019.24C303.48 1022.78 305.344 1025.24 308.784 1025.24ZM316.002 1025H317.178V1013.24H316.002V1025ZM320.621 1021.01H327.429C327.517 1017.96 326.013 1016.12 323.453 1016.12C320.957 1016.12 319.365 1017.89 319.365 1020.72C319.365 1023.46 320.981 1025.24 323.501 1025.24C325.173 1025.24 326.573 1024.38 327.261 1022.87L326.165 1022.45C325.629 1023.53 324.685 1024.11 323.453 1024.11C321.733 1024.11 320.717 1022.98 320.621 1021.01ZM323.485 1017.2C325.093 1017.2 326.013 1018.16 326.197 1020.02H320.645C320.829 1018.21 321.821 1017.2 323.485 1017.2ZM335.869 1017.85C335.413 1016.73 334.261 1016.12 332.685 1016.12C330.781 1016.12 329.565 1017.02 329.165 1018.56L330.309 1018.9C330.637 1017.74 331.485 1017.23 332.669 1017.23C334.309 1017.23 334.957 1017.98 334.973 1019.54C333.821 1019.7 332.205 1019.89 331.037 1020.17C329.749 1020.51 328.837 1021.26 328.837 1022.68C328.837 1024.06 329.829 1025.24 331.789 1025.24C333.261 1025.24 334.405 1024.66 335.077 1023.57V1025H336.125V1019.63C336.125 1018.99 336.077 1018.35 335.869 1017.85ZM331.925 1024.22C330.533 1024.22 330.013 1023.43 330.013 1022.68C330.013 1021.74 330.773 1021.33 331.509 1021.11C332.461 1020.85 333.821 1020.71 334.957 1020.58C334.957 1020.97 334.941 1021.53 334.845 1021.95C334.621 1023.26 333.573 1024.22 331.925 1024.22ZM340.204 1016.93C339.956 1017.12 339.716 1017.4 339.532 1017.73V1016.36H338.476V1025H339.652V1020.69C339.652 1019.66 339.796 1018.54 340.66 1017.86C341.284 1017.34 342.084 1017.31 342.724 1017.46V1016.36C341.964 1016.17 340.884 1016.34 340.204 1016.93Z" fill="#A1A1A1"></path> </g> </g> <rect x="16" y="1061" width="40" height="40" rx="20" fill="white"></rect> <path d="M34 1076H36V1081H41V1083H34V1076Z" fill="#A1A1A1"></path> <path fill-rule="evenodd" clip-rule="evenodd" d="M46 1081C46 1086.52 41.5228 1091 36 1091C30.4772 1091 26 1086.52 26 1081C26 1075.48 30.4772 1071 36 1071C41.5228 1071 46 1075.48 46 1081ZM44 1081C44 1085.42 40.4183 1089 36 1089C31.5817 1089 28 1085.42 28 1081C28 1076.58 31.5817 1073 36 1073C40.4183 1073 44 1076.58 44 1081Z" fill="#A1A1A1"></path> <path d="M73.784 1076.24C76.456 1076.24 78.176 1074.76 78.808 1072.46L77.608 1072.14C77.12 1073.96 75.848 1075.11 73.784 1075.11C71.08 1075.11 69.704 1073.12 69.72 1070.24C69.744 1067.36 71.08 1065.37 73.784 1065.37C75.848 1065.37 77.12 1066.52 77.608 1068.34L78.808 1068.02C78.176 1065.72 76.456 1064.24 73.784 1064.24C70.344 1064.24 68.48 1066.7 68.48 1070.24C68.48 1073.78 70.344 1076.24 73.784 1076.24ZM84.8019 1067.14C83.5619 1067.14 82.5379 1067.62 81.8979 1068.56V1064.48H80.8339V1076H82.0179V1071.39C82.0179 1069.44 82.9139 1068.26 84.5779 1068.26C86.3859 1068.26 87.0819 1069.69 87.0819 1071.59V1076H88.2659V1071.25C88.2659 1069.3 87.3939 1067.14 84.8019 1067.14ZM91.3867 1072.01H98.1947C98.2827 1068.96 96.7787 1067.12 94.2187 1067.12C91.7227 1067.12 90.1307 1068.89 90.1307 1071.72C90.1307 1074.46 91.7467 1076.24 94.2667 1076.24C95.9387 1076.24 97.3387 1075.38 98.0267 1073.87L96.9307 1073.45C96.3947 1074.53 95.4507 1075.11 94.2187 1075.11C92.4987 1075.11 91.4827 1073.98 91.3867 1072.01ZM94.2507 1068.2C95.8587 1068.2 96.7787 1069.16 96.9627 1071.02H91.4107C91.5947 1069.21 92.5867 1068.2 94.2507 1068.2ZM101.015 1072.01H107.823C107.911 1068.96 106.407 1067.12 103.847 1067.12C101.351 1067.12 99.7589 1068.89 99.7589 1071.72C99.7589 1074.46 101.375 1076.24 103.895 1076.24C105.567 1076.24 106.967 1075.38 107.655 1073.87L106.559 1073.45C106.023 1074.53 105.079 1075.11 103.847 1075.11C102.127 1075.11 101.111 1073.98 101.015 1072.01ZM103.879 1068.2C105.487 1068.2 106.407 1069.16 106.591 1071.02H101.039C101.223 1069.21 102.215 1068.2 103.879 1068.2ZM113.091 1076.23C115.211 1076.23 116.499 1075.24 116.499 1073.61C116.499 1072.27 115.755 1071.66 113.371 1071.05C111.331 1070.54 110.843 1070.22 110.843 1069.53C110.843 1068.71 111.691 1068.17 112.915 1068.19C114.211 1068.22 115.115 1068.84 115.283 1069.86L116.483 1069.64C116.307 1068.14 114.883 1067.12 112.931 1067.12C110.979 1067.12 109.651 1068.11 109.651 1069.58C109.651 1070.79 110.371 1071.36 112.715 1071.99C114.907 1072.58 115.275 1072.82 115.275 1073.62C115.275 1074.57 114.467 1075.16 113.155 1075.16C111.811 1075.16 110.835 1074.54 110.587 1073.55L109.387 1073.75C109.683 1075.31 111.067 1076.23 113.091 1076.23ZM119.318 1072.01H126.126C126.214 1068.96 124.71 1067.12 122.15 1067.12C119.654 1067.12 118.062 1068.89 118.062 1071.72C118.062 1074.46 119.678 1076.24 122.198 1076.24C123.87 1076.24 125.27 1075.38 125.958 1073.87L124.862 1073.45C124.326 1074.53 123.382 1075.11 122.15 1075.11C120.43 1075.11 119.414 1073.98 119.318 1072.01ZM122.182 1068.2C123.79 1068.2 124.71 1069.16 124.894 1071.02H119.342C119.526 1069.21 120.518 1068.2 122.182 1068.2ZM131.642 1076H133.57V1071.98H136.402C136.61 1071.98 137.026 1071.96 137.322 1071.91C139.306 1071.61 140.258 1070.13 140.258 1068.23C140.258 1066.33 139.322 1064.86 137.322 1064.54C137.026 1064.5 136.626 1064.48 136.402 1064.48H131.642V1076ZM133.57 1070.18V1066.29H136.322C136.538 1066.29 136.826 1066.3 137.05 1066.36C138.01 1066.61 138.314 1067.5 138.314 1068.23C138.314 1068.97 138.01 1069.86 137.05 1070.1C136.826 1070.16 136.538 1070.18 136.322 1070.18H133.57ZM142.101 1066.05H144.029V1064.28H142.101V1066.05ZM142.101 1076H144.029V1067.36H142.101V1076ZM145.705 1076H153.089V1074.31H148.721L153.281 1067.63V1067.36H146.169V1069.05H150.281L145.705 1075.74V1076ZM154.317 1076H161.701V1074.31H157.333L161.893 1067.63V1067.36H154.781V1069.05H158.893L154.317 1075.74V1076ZM170.28 1068.85C169.824 1067.73 168.672 1067.12 167.096 1067.12C165.192 1067.12 163.976 1068.02 163.576 1069.56L164.72 1069.9C165.048 1068.74 165.896 1068.23 167.08 1068.23C168.72 1068.23 169.368 1068.98 169.384 1070.54C168.232 1070.7 166.616 1070.89 165.448 1071.17C164.16 1071.51 163.248 1072.26 163.248 1073.68C163.248 1075.06 164.24 1076.24 166.2 1076.24C167.672 1076.24 168.816 1075.66 169.488 1074.57V1076H170.536V1070.63C170.536 1069.99 170.488 1069.35 170.28 1068.85ZM166.336 1075.22C164.944 1075.22 164.424 1074.43 164.424 1073.68C164.424 1072.74 165.184 1072.33 165.92 1072.11C166.872 1071.85 168.232 1071.71 169.368 1071.58C169.368 1071.97 169.352 1072.53 169.256 1072.95C169.032 1074.26 167.984 1075.22 166.336 1075.22Z" fill="black"></path> <path d="M77.709 1093.96C77.709 1090.86 76.078 1088.71 73.061 1088.71C70.051 1088.71 68.42 1090.86 68.42 1093.96C68.42 1097.06 70.051 1099.21 73.061 1099.21C74.251 1099.21 75.224 1098.87 75.966 1098.28L76.897 1099.2L77.583 1098.5L76.652 1097.57C77.352 1096.66 77.709 1095.42 77.709 1093.96ZM73.061 1098.22C70.695 1098.21 69.491 1096.48 69.512 1093.96C69.533 1091.44 70.695 1089.69 73.061 1089.7C75.427 1089.71 76.617 1091.44 76.617 1093.96C76.617 1095.09 76.372 1096.08 75.889 1096.81L74.909 1095.83L74.209 1096.53L75.224 1097.54C74.671 1097.98 73.95 1098.22 73.061 1098.22ZM84.6731 1091.44V1095.47C84.6731 1097.18 83.8891 1098.21 82.4331 1098.21C80.8511 1098.21 80.2421 1096.96 80.2421 1095.3V1091.44H79.2061V1095.6C79.2061 1097.3 79.9691 1099.19 82.2371 1099.19C83.3221 1099.19 84.2181 1098.77 84.7781 1097.95V1099H85.7021V1091.44H84.6731ZM93.6268 1092.74C93.2278 1091.76 92.2198 1091.23 90.8408 1091.23C89.1748 1091.23 88.1108 1092.01 87.7608 1093.36L88.7618 1093.66C89.0488 1092.65 89.7908 1092.2 90.8268 1092.2C92.2618 1092.2 92.8288 1092.86 92.8428 1094.23C91.8348 1094.37 90.4208 1094.53 89.3988 1094.77C88.2718 1095.07 87.4738 1095.73 87.4738 1096.97C87.4738 1098.17 88.3418 1099.21 90.0568 1099.21C91.3448 1099.21 92.3458 1098.71 92.9338 1097.75V1099H93.8508V1094.3C93.8508 1093.74 93.8088 1093.18 93.6268 1092.74ZM90.1758 1098.32C88.9578 1098.32 88.5028 1097.63 88.5028 1096.97C88.5028 1096.15 89.1678 1095.79 89.8118 1095.6C90.6448 1095.37 91.8348 1095.25 92.8288 1095.13C92.8288 1095.47 92.8148 1095.96 92.7308 1096.33C92.5348 1097.47 91.6178 1098.32 90.1758 1098.32ZM97.7073 1092.32H100.024V1091.44H97.7073V1089.34H96.6853V1091.44H95.0683V1092.32H96.6853V1096.26C96.6853 1097 96.6503 1097.54 96.9233 1098.1C97.4203 1099.11 98.7433 1099.27 100.024 1099V1098.1C98.9393 1098.27 98.1973 1098.21 97.8613 1097.58C97.6793 1097.26 97.7073 1096.86 97.7073 1096.22V1092.32ZM103.548 1092.32H105.865V1091.44H103.548V1089.34H102.526V1091.44H100.909V1092.32H102.526V1096.26C102.526 1097 102.491 1097.54 102.764 1098.1C103.261 1099.11 104.584 1099.27 105.865 1099V1098.1C104.78 1098.27 104.038 1098.21 103.702 1097.58C103.52 1097.26 103.548 1096.86 103.548 1096.22V1092.32ZM109.102 1091.94C108.885 1092.1 108.675 1092.35 108.514 1092.64V1091.44H107.59V1099H108.619V1095.23C108.619 1094.32 108.745 1093.34 109.501 1092.75C110.047 1092.3 110.747 1092.27 111.307 1092.41V1091.44C110.642 1091.27 109.697 1091.42 109.102 1091.94ZM115.89 1099.21C118.13 1099.21 119.474 1097.59 119.474 1095.21C119.474 1092.87 118.158 1091.23 115.89 1091.23C113.678 1091.23 112.313 1092.83 112.313 1095.21C112.313 1097.56 113.636 1099.21 115.89 1099.21ZM115.89 1098.22C114.252 1098.22 113.405 1097.03 113.405 1095.21C113.405 1093.45 114.196 1092.22 115.89 1092.22C117.556 1092.22 118.382 1093.39 118.382 1095.21C118.382 1097 117.57 1098.22 115.89 1098.22ZM127.238 1089.58H128.134V1088.71H127.168C126.587 1088.71 125.964 1088.77 125.509 1089.26C125.096 1089.71 125.04 1090.3 125.04 1090.88V1091.44H123.731V1092.32H125.04V1099H126.069V1092.32H128.134V1091.44H126.069V1090.77C126.069 1089.95 126.454 1089.58 127.238 1089.58ZM132.373 1099.21C134.613 1099.21 135.957 1097.59 135.957 1095.21C135.957 1092.87 134.641 1091.23 132.373 1091.23C130.161 1091.23 128.796 1092.83 128.796 1095.21C128.796 1097.56 130.119 1099.21 132.373 1099.21ZM132.373 1098.22C130.735 1098.22 129.888 1097.03 129.888 1095.21C129.888 1093.45 130.679 1092.22 132.373 1092.22C134.039 1092.22 134.865 1093.39 134.865 1095.21C134.865 1097 134.053 1098.22 132.373 1098.22ZM139.248 1091.94C139.031 1092.1 138.821 1092.35 138.66 1092.64V1091.44H137.736V1099H138.765V1095.23C138.765 1094.32 138.891 1093.34 139.647 1092.75C140.193 1092.3 140.893 1092.27 141.453 1092.41V1091.44C140.788 1091.27 139.843 1091.42 139.248 1091.94ZM150.555 1091.24C149.547 1091.24 148.707 1091.71 148.266 1092.51C147.86 1091.68 147.055 1091.24 146.061 1091.24C145.165 1091.24 144.402 1091.62 143.933 1092.24V1091.44H143.009V1099H144.045V1094.12C144.045 1092.94 144.745 1092.16 145.795 1092.16C146.838 1092.16 147.538 1092.9 147.538 1094.11L147.531 1099H148.546L148.553 1094.12C148.553 1092.71 149.456 1092.16 150.317 1092.16C151.311 1092.16 152.039 1092.87 152.039 1094.04L152.032 1099H153.061L153.068 1093.84C153.068 1092.24 152.081 1091.24 150.555 1091.24ZM160.852 1092.74C160.453 1091.76 159.445 1091.23 158.066 1091.23C156.4 1091.23 155.336 1092.01 154.986 1093.36L155.987 1093.66C156.274 1092.65 157.016 1092.2 158.052 1092.2C159.487 1092.2 160.054 1092.86 160.068 1094.23C159.06 1094.37 157.646 1094.53 156.624 1094.77C155.497 1095.07 154.699 1095.73 154.699 1096.97C154.699 1098.17 155.567 1099.21 157.282 1099.21C158.57 1099.21 159.571 1098.71 160.159 1097.75V1099H161.076V1094.3C161.076 1093.74 161.034 1093.18 160.852 1092.74ZM157.401 1098.32C156.183 1098.32 155.728 1097.63 155.728 1096.97C155.728 1096.15 156.393 1095.79 157.037 1095.6C157.87 1095.37 159.06 1095.25 160.054 1095.13C160.054 1095.47 160.04 1095.96 159.956 1096.33C159.76 1097.47 158.843 1098.32 157.401 1098.32ZM168.544 1091.44V1092.48C167.991 1091.7 167.144 1091.23 166.024 1091.23C163.952 1091.23 162.713 1092.96 162.713 1095.21C162.713 1097.48 163.945 1099.21 166.066 1099.21C167.088 1099.21 167.879 1098.79 168.425 1098.1V1098.88C168.432 1100.66 167.774 1101.57 166.136 1101.57C165.338 1101.57 164.498 1101.23 164.085 1100.39L163.154 1100.9C163.798 1102.08 164.974 1102.57 166.136 1102.57C167.984 1102.57 169.104 1101.79 169.377 1100.1C169.44 1099.71 169.461 1099.33 169.461 1098.89V1091.44H168.544ZM166.171 1098.25C164.596 1098.25 163.805 1096.93 163.805 1095.21C163.805 1093.5 164.568 1092.19 166.192 1092.19C167.767 1092.19 168.544 1093.43 168.544 1095.21C168.544 1096.96 167.781 1098.25 166.171 1098.25ZM177.065 1091.44V1092.48C176.512 1091.7 175.665 1091.23 174.545 1091.23C172.473 1091.23 171.234 1092.96 171.234 1095.21C171.234 1097.48 172.466 1099.21 174.587 1099.21C175.609 1099.21 176.4 1098.79 176.946 1098.1V1098.88C176.953 1100.66 176.295 1101.57 174.657 1101.57C173.859 1101.57 173.019 1101.23 172.606 1100.39L171.675 1100.9C172.319 1102.08 173.495 1102.57 174.657 1102.57C176.505 1102.57 177.625 1101.79 177.898 1100.1C177.961 1099.71 177.982 1099.33 177.982 1098.89V1091.44H177.065ZM174.692 1098.25C173.117 1098.25 172.326 1096.93 172.326 1095.21C172.326 1093.5 173.089 1092.19 174.713 1092.19C176.288 1092.19 177.065 1093.43 177.065 1095.21C177.065 1096.96 176.302 1098.25 174.692 1098.25ZM180.314 1090H181.343V1088.85H180.314V1090ZM180.314 1099H181.343V1091.44H180.314V1099ZM186.834 1099.21C189.074 1099.21 190.418 1097.59 190.418 1095.21C190.418 1092.87 189.102 1091.23 186.834 1091.23C184.622 1091.23 183.257 1092.83 183.257 1095.21C183.257 1097.56 184.58 1099.21 186.834 1099.21ZM186.834 1098.22C185.196 1098.22 184.349 1097.03 184.349 1095.21C184.349 1093.45 185.14 1092.22 186.834 1092.22C188.5 1092.22 189.326 1093.39 189.326 1095.21C189.326 1097 188.514 1098.22 186.834 1098.22Z" fill="#818181"></path> <rect x="16" y="1123" width="40" height="40" rx="20" fill="white"></rect> <path d="M34 1138H36V1143H41V1145H34V1138Z" fill="#A1A1A1"></path> <path fill-rule="evenodd" clip-rule="evenodd" d="M46 1143C46 1148.52 41.5228 1153 36 1153C30.4772 1153 26 1148.52 26 1143C26 1137.48 30.4772 1133 36 1133C41.5228 1133 46 1137.48 46 1143ZM44 1143C44 1147.42 40.4183 1151 36 1151C31.5817 1151 28 1147.42 28 1143C28 1138.58 31.5817 1135 36 1135C40.4183 1135 44 1138.58 44 1143Z" fill="#A1A1A1"></path> <g clip-path="url(#clip4)"> <path d="M69.12 1149H70.296V1143.8H76.664V1149H77.832V1137.48H76.664V1142.67H70.296V1137.48H69.12V1149ZM86.4299 1140.36V1144.97C86.4299 1146.92 85.5339 1148.1 83.8699 1148.1C82.0619 1148.1 81.3659 1146.67 81.3659 1144.77V1140.36H80.1819V1145.11C80.1819 1147.06 81.0539 1149.22 83.6459 1149.22C84.8859 1149.22 85.9099 1148.74 86.5499 1147.8V1149H87.6059V1140.36H86.4299ZM96.2947 1140.36V1141.55C95.6627 1140.66 94.6947 1140.12 93.4147 1140.12C91.0467 1140.12 89.6307 1142.1 89.6307 1144.67C89.6307 1147.26 91.0387 1149.24 93.4627 1149.24C94.6307 1149.24 95.5347 1148.76 96.1587 1147.98V1148.86C96.1667 1150.9 95.4147 1151.94 93.5427 1151.94C92.6307 1151.94 91.6707 1151.54 91.1987 1150.58L90.1347 1151.18C90.8707 1152.52 92.2147 1153.08 93.5427 1153.08C95.6547 1153.08 96.9347 1152.18 97.2467 1150.26C97.3187 1149.82 97.3427 1149.38 97.3427 1148.88V1140.36H96.2947ZM93.5827 1148.14C91.7827 1148.14 90.8787 1146.64 90.8787 1144.67C90.8787 1142.72 91.7507 1141.22 93.6067 1141.22C95.4067 1141.22 96.2947 1142.64 96.2947 1144.67C96.2947 1146.67 95.4227 1148.14 93.5827 1148.14ZM100.624 1145.01H107.432C107.52 1141.96 106.016 1140.12 103.456 1140.12C100.96 1140.12 99.3683 1141.89 99.3683 1144.72C99.3683 1147.46 100.984 1149.24 103.504 1149.24C105.176 1149.24 106.576 1148.38 107.264 1146.87L106.168 1146.45C105.632 1147.53 104.688 1148.11 103.456 1148.11C101.736 1148.11 100.72 1146.98 100.624 1145.01ZM103.488 1141.2C105.096 1141.2 106.016 1142.16 106.2 1144.02H100.648C100.832 1142.21 101.824 1141.2 103.488 1141.2ZM112.948 1149H114.876V1144.98H117.708C117.916 1144.98 118.332 1144.96 118.628 1144.91C120.612 1144.61 121.564 1143.13 121.564 1141.23C121.564 1139.33 120.628 1137.86 118.628 1137.54C118.332 1137.5 117.932 1137.48 117.708 1137.48H112.948V1149ZM114.876 1143.18V1139.29H117.628C117.844 1139.29 118.132 1139.3 118.356 1139.36C119.316 1139.61 119.62 1140.5 119.62 1141.23C119.62 1141.97 119.316 1142.86 118.356 1143.1C118.132 1143.16 117.844 1143.18 117.628 1143.18H114.876ZM123.407 1139.05H125.335V1137.28H123.407V1139.05ZM123.407 1149H125.335V1140.36H123.407V1149ZM127.012 1149H134.396V1147.31H130.028L134.588 1140.63V1140.36H127.476V1142.05H131.588L127.012 1148.74V1149ZM135.623 1149H143.007V1147.31H138.639L143.199 1140.63V1140.36H136.087V1142.05H140.199L135.623 1148.74V1149ZM151.586 1141.85C151.13 1140.73 149.978 1140.12 148.402 1140.12C146.498 1140.12 145.282 1141.02 144.882 1142.56L146.026 1142.9C146.354 1141.74 147.202 1141.23 148.386 1141.23C150.026 1141.23 150.674 1141.98 150.69 1143.54C149.538 1143.7 147.922 1143.89 146.754 1144.17C145.466 1144.51 144.554 1145.26 144.554 1146.68C144.554 1148.06 145.546 1149.24 147.506 1149.24C148.978 1149.24 150.122 1148.66 150.794 1147.57V1149H151.842V1143.63C151.842 1142.99 151.794 1142.35 151.586 1141.85ZM147.642 1148.22C146.25 1148.22 145.73 1147.43 145.73 1146.68C145.73 1145.74 146.49 1145.33 147.226 1145.11C148.178 1144.85 149.538 1144.71 150.674 1144.58C150.674 1144.97 150.658 1145.53 150.562 1145.95C150.338 1147.26 149.29 1148.22 147.642 1148.22Z" fill="black"></path> </g> <g clip-path="url(#clip5)"> <path fill-rule="evenodd" clip-rule="evenodd" d="M323.5 1143.9C322.719 1144.68 322.719 1145.95 323.5 1146.73L327.358 1150.59H324.086C323.533 1150.59 323.086 1151.03 323.086 1151.59C323.086 1152.14 323.533 1152.59 324.086 1152.59H340.086C340.638 1152.59 341.086 1152.14 341.086 1151.59C341.086 1151.03 340.638 1150.59 340.086 1150.59H330.956L340.47 1141.07C341.251 1140.29 341.251 1139.02 340.47 1138.24L336.228 1134C335.447 1133.22 334.18 1133.22 333.399 1134L323.5 1143.9ZM327.826 1142.4L324.914 1145.31L329.157 1149.56L332.068 1146.64L327.826 1142.4ZM329.24 1140.99L333.483 1145.23L339.056 1139.66L334.814 1135.41L329.24 1140.99Z" fill="#C0C0C0"></path> </g> </g> <defs> <filter id="filter0_dd" x="0" y="248" width="40" height="40" filterUnits="userSpaceOnUse" color-interpolation-filters="sRGB"> <feFlood flood-opacity="0" result="BackgroundImageFix"></feFlood> <feColorMatrix in="SourceAlpha" type="matrix" values="0 0 0 0 0 0 0 0 0 0 0 0 0 0 0 0 0 0 127 0"></feColorMatrix> <feOffset dy="4"></feOffset> <feGaussianBlur stdDeviation="4"></feGaussianBlur> <feColorMatrix type="matrix" values="0 0 0 0 0.380392 0 0 0 0 0.380392 0 0 0 0 0.380392 0 0 0 0.18 0"></feColorMatrix> <feBlend mode="multiply" in2="BackgroundImageFix" result="effect1_dropShadow"></feBlend> <feColorMatrix in="SourceAlpha" type="matrix" values="0 0 0 0 0 0 0 0 0 0 0 0 0 0 0 0 0 0 127 0"></feColorMatrix> <feOffset dy="2"></feOffset> <feGaussianBlur stdDeviation="2"></feGaussianBlur> <feColorMatrix type="matrix" values="0 0 0 0 0.380392 0 0 0 0 0.380392 0 0 0 0 0.380392 0 0 0 0.18 0"></feColorMatrix> <feBlend mode="multiply" in2="effect1_dropShadow" result="effect2_dropShadow"></feBlend> <feBlend mode="normal" in="SourceGraphic" in2="effect2_dropShadow" result="shape"></feBlend> </filter> <filter id="filter1_dd" x="100" y="250" width="32" height="32" filterUnits="userSpaceOnUse" color-interpolation-filters="sRGB"> <feFlood flood-opacity="0" result="BackgroundImageFix"></feFlood> <feColorMatrix in="SourceAlpha" type="matrix" values="0 0 0 0 0 0 0 0 0 0 0 0 0 0 0 0 0 0 127 0"></feColorMatrix> <feOffset dy="2"></feOffset> <feGaussianBlur stdDeviation="2"></feGaussianBlur> <feColorMatrix type="matrix" values="0 0 0 0 0.0588235 0 0 0 0 0.337255 0 0 0 0 0.701961 0 0 0 0.2 0"></feColorMatrix> <feBlend mode="multiply" in2="BackgroundImageFix" result="effect1_dropShadow"></feBlend> <feColorMatrix in="SourceAlpha" type="matrix" values="0 0 0 0 0 0 0 0 0 0 0 0 0 0 0 0 0 0 127 0"></feColorMatrix> <feOffset dy="1"></feOffset> <feGaussianBlur stdDeviation="1"></feGaussianBlur> <feColorMatrix type="matrix" values="0 0 0 0 0.0588235 0 0 0 0 0.337255 0 0 0 0 0.701961 0 0 0 0.2 0"></feColorMatrix> <feBlend mode="multiply" in2="effect1_dropShadow" result="effect2_dropShadow"></feBlend> <feBlend mode="normal" in="SourceGraphic" in2="effect2_dropShadow" result="shape"></feBlend> </filter> <filter id="filter2_dd" x="172" y="250" width="32" height="32" filterUnits="userSpaceOnUse" color-interpolation-filters="sRGB"> <feFlood flood-opacity="0" result="BackgroundImageFix"></feFlood> <feColorMatrix in="SourceAlpha" type="matrix" values="0 0 0 0 0 0 0 0 0 0 0 0 0 0 0 0 0 0 127 0"></feColorMatrix> <feOffset dy="2"></feOffset> <feGaussianBlur stdDeviation="2"></feGaussianBlur> <feColorMatrix type="matrix" values="0 0 0 0 0.121569 0 0 0 0 0.545098 0 0 0 0 0.141176 0 0 0 0.2 0"></feColorMatrix> <feBlend mode="multiply" in2="BackgroundImageFix" result="effect1_dropShadow"></feBlend> <feColorMatrix in="SourceAlpha" type="matrix" values="0 0 0 0 0 0 0 0 0 0 0 0 0 0 0 0 0 0 127 0"></feColorMatrix> <feOffset dy="1"></feOffset> <feGaussianBlur stdDeviation="1"></feGaussianBlur> <feColorMatrix type="matrix" values="0 0 0 0 0.121569 0 0 0 0 0.545098 0 0 0 0 0.141176 0 0 0 0.2 0"></feColorMatrix> <feBlend mode="multiply" in2="effect1_dropShadow" result="effect2_dropShadow"></feBlend> <feBlend mode="normal" in="SourceGraphic" in2="effect2_dropShadow" result="shape"></feBlend> </filter> <filter id="filter3_dd" x="244" y="250" width="32" height="32" filterUnits="userSpaceOnUse" color-interpolation-filters="sRGB"> <feFlood flood-opacity="0" result="BackgroundImageFix"></feFlood> <feColorMatrix in="SourceAlpha" type="matrix" values="0 0 0 0 0 0 0 0 0 0 0 0 0 0 0 0 0 0 127 0"></feColorMatrix> <feOffset dy="2"></feOffset> <feGaussianBlur stdDeviation="2"></feGaussianBlur> <feColorMatrix type="matrix" values="0 0 0 0 0.854902 0 0 0 0 0.0627451 0 0 0 0 0.0431373 0 0 0 0.2 0"></feColorMatrix> <feBlend mode="multiply" in2="BackgroundImageFix" result="effect1_dropShadow"></feBlend> <feColorMatrix in="SourceAlpha" type="matrix" values="0 0 0 0 0 0 0 0 0 0 0 0 0 0 0 0 0 0 127 0"></feColorMatrix> <feOffset dy="1"></feOffset> <feGaussianBlur stdDeviation="1"></feGaussianBlur> <feColorMatrix type="matrix" values="0 0 0 0 0.854902 0 0 0 0 0.0627451 0 0 0 0 0.0431373 0 0 0 0.2 0"></feColorMatrix> <feBlend mode="multiply" in2="effect1_dropShadow" result="effect2_dropShadow"></feBlend> <feBlend mode="normal" in="SourceGraphic" in2="effect2_dropShadow" result="shape"></feBlend> </filter> <filter id="filter4_dd" x="4" y="990" width="352" height="62" filterUnits="userSpaceOnUse" color-interpolation-filters="sRGB"> <feFlood flood-opacity="0" result="BackgroundImageFix"></feFlood> <feColorMatrix in="SourceAlpha" type="matrix" values="0 0 0 0 0 0 0 0 0 0 0 0 0 0 0 0 0 0 127 0"></feColorMatrix> <feOffset dy="2"></feOffset> <feGaussianBlur stdDeviation="2"></feGaussianBlur> <feColorMatrix type="matrix" values="0 0 0 0 0.380392 0 0 0 0 0.380392 0 0 0 0 0.380392 0 0 0 0.2 0"></feColorMatrix> <feBlend mode="multiply" in2="BackgroundImageFix" result="effect1_dropShadow"></feBlend> <feColorMatrix in="SourceAlpha" type="matrix" values="0 0 0 0 0 0 0 0 0 0 0 0 0 0 0 0 0 0 127 0"></feColorMatrix> <feOffset dy="1"></feOffset> <feGaussianBlur stdDeviation="1"></feGaussianBlur> <feColorMatrix type="matrix" values="0 0 0 0 0.380392 0 0 0 0 0.380392 0 0 0 0 0.380392 0 0 0 0.2 0"></feColorMatrix> <feBlend mode="multiply" in2="effect1_dropShadow" result="effect2_dropShadow"></feBlend> <feBlend mode="normal" in="SourceGraphic" in2="effect2_dropShadow" result="shape"></feBlend> </filter> <clipPath id="clip0"> <rect width="360" height="1170" fill="white"></rect> </clipPath> <clipPath id="clip1"> <rect width="61" height="26" fill="white" transform="translate(68 882)"></rect> </clipPath> <clipPath id="clip2"> <rect width="112" height="26" fill="white" transform="translate(68 944)"></rect> </clipPath> <clipPath id="clip3"> <rect width="57" height="32" fill="white" transform="translate(295 1003)"></rect> </clipPath> <clipPath id="clip4"> <rect width="85" height="26" fill="white" transform="translate(68 1130)"></rect> </clipPath> <clipPath id="clip5"> <rect width="40" height="32" fill="white" transform="translate(312 1127)"></rect> </clipPath> </defs> </svg> 