<?xml version="1.0" encoding="UTF-8"?> <svg xmlns="http://www.w3.org/2000/svg" width="432" height="792" viewBox="0 0 432 792" fill="none"> <rect width="432" height="792" rx="5" fill="white"></rect> <rect x="16" y="200" width="40" height="48" rx="6" fill="#FCD0CF" fill-opacity="0.5"></rect> <path d="M28 224C28 223.448 28.4477 223 29 223H43C43.5523 223 44 223.448 44 224C44 224.552 43.5523 225 43 225H29C28.4477 225 28 224.552 28 224Z" fill="#910B08"></path> <rect x="60.5" y="200.5" width="47" height="47" rx="7.5" fill="white" stroke="#C0C0C0"></rect> <g clip-path="url(#clip0)"> <path d="M78.21 232.3C81.15 232.3 83.23 230.21 83.23 227.28V222.32C83.23 219.39 81.15 217.3 78.21 217.3C75.28 217.3 73.19 219.39 73.19 222.32V227.28C73.19 230.21 75.28 232.3 78.21 232.3ZM78.21 230.3C76.61 230.3 75.33 229.02 75.33 227.41V222.17C75.33 220.57 76.61 219.29 78.21 219.29C79.82 219.29 81.1 220.57 81.1 222.17V227.41C81.1 229.02 79.82 230.3 78.21 230.3ZM90.7623 232.3C93.7023 232.3 95.7823 230.21 95.7823 227.28V222.32C95.7823 219.39 93.7023 217.3 90.7623 217.3C87.8323 217.3 85.7423 219.39 85.7423 222.32V227.28C85.7423 230.21 87.8323 232.3 90.7623 232.3ZM90.7623 230.3C89.1623 230.3 87.8823 229.02 87.8823 227.41V222.17C87.8823 220.57 89.1623 219.29 90.7623 219.29C92.3723 219.29 93.6523 220.57 93.6523 222.17V227.41C93.6523 229.02 92.3723 230.3 90.7623 230.3Z" fill="black"></path> </g> <rect x="112" y="200" width="40" height="48" rx="6" fill="#C5F2C7" fill-opacity="0.5"></rect> <path d="M132 216C131.448 216 131 216.448 131 217V223H125C124.448 223 124 223.448 124 224C124 224.552 124.448 225 125 225H131V231C131 231.552 131.448 232 132 232C132.552 232 133 231.552 133 231V225H139C139.552 225 140 224.552 140 224C140 223.448 139.552 223 139 223H133V217C133 216.448 132.552 216 132 216Z" fill="#155D18"></path> <path d="M28 312C28 311.448 28.4477 311 29 311H43C43.5523 311 44 311.448 44 312C44 312.552 43.5523 313 43 313H29C28.4477 313 28 312.552 28 312Z" fill="#910B08"></path> <rect x="60.5" y="288.5" width="47" height="47" rx="7.5" fill="white" stroke="#C0C0C0"></rect> <g clip-path="url(#clip1)"> <path d="M78.21 320.3C81.15 320.3 83.23 318.21 83.23 315.28V310.32C83.23 307.39 81.15 305.3 78.21 305.3C75.28 305.3 73.19 307.39 73.19 310.32V315.28C73.19 318.21 75.28 320.3 78.21 320.3ZM78.21 318.3C76.61 318.3 75.33 317.02 75.33 315.41V310.17C75.33 308.57 76.61 307.29 78.21 307.29C79.82 307.29 81.1 308.57 81.1 310.17V315.41C81.1 317.02 79.82 318.3 78.21 318.3ZM93.2623 314.28C94.8223 312.91 95.6023 312.01 95.6023 310.04C95.6023 307.31 93.5623 305.3 90.8423 305.3C87.9623 305.3 85.9123 307.21 85.9123 310H88.0623C88.0323 308.55 89.1923 307.29 90.8023 307.29C92.3423 307.29 93.4623 308.47 93.4623 310.01C93.4623 310.83 93.1523 311.61 92.1423 312.51L85.8723 318.13L85.8623 319.99H95.6023V318H89.0923L93.2623 314.28Z" fill="black"></path> </g> <path d="M132 304C131.448 304 131 304.448 131 305V311H125C124.448 311 124 311.448 124 312C124 312.552 124.448 313 125 313H131V319C131 319.552 131.448 320 132 320C132.552 320 133 319.552 133 319V313H139C139.552 313 140 312.552 140 312C140 311.448 139.552 311 139 311H133V305C133 304.448 132.552 304 132 304Z" fill="#155D18"></path> <path d="M230 664C230 663.448 230.448 663 231 663H245C245.552 663 246 663.448 246 664C246 664.552 245.552 665 245 665H231C230.448 665 230 664.552 230 664Z" fill="#910B08"></path> <line x1="272" y1="649" x2="272" y2="679" stroke="#E0E0E0" stroke-width="2" stroke-linecap="round" stroke-linejoin="round"></line> <path d="M306 656C305.448 656 305 656.448 305 657V663H299C298.448 663 298 663.448 298 664C298 664.552 298.448 665 299 665H305V671C305 671.552 305.448 672 306 672C306.552 672 307 671.552 307 671V665H313C313.552 665 314 664.552 314 664C314 663.448 313.552 663 313 663H307V657C307 656.448 306.552 656 306 656Z" fill="#155D18"></path> <rect x="192.5" y="288.5" width="91" height="47" rx="7.5" fill="white" stroke="#C0C0C0"></rect> <g clip-path="url(#clip2)"> <path d="M210.21 320.3C213.15 320.3 215.23 318.21 215.23 315.28V310.32C215.23 307.39 213.15 305.3 210.21 305.3C207.28 305.3 205.19 307.39 205.19 310.32V315.28C205.19 318.21 207.28 320.3 210.21 320.3ZM210.21 318.3C208.61 318.3 207.33 317.02 207.33 315.41V310.17C207.33 308.57 208.61 307.29 210.21 307.29C211.82 307.29 213.1 308.57 213.1 310.17V315.41C213.1 317.02 211.82 318.3 210.21 318.3ZM225.262 314.28C226.822 312.91 227.602 312.01 227.602 310.04C227.602 307.31 225.562 305.3 222.842 305.3C219.962 305.3 217.912 307.21 217.912 310H220.062C220.032 308.55 221.192 307.29 222.802 307.29C224.342 307.29 225.462 308.47 225.462 310.01C225.462 310.83 225.152 311.61 224.142 312.51L217.872 318.13L217.862 319.99H227.602V318H221.092L225.262 314.28Z" fill="black"></path> </g> <path d="M288 294C288 290.686 290.686 288 294 288H322C325.314 288 328 290.686 328 294V311H288V294Z" fill="#C5F2C7" fill-opacity="0.5"></path> <path d="M308 294C307.586 294 307.25 294.336 307.25 294.75V299.25H302.75C302.336 299.25 302 299.586 302 300C302 300.414 302.336 300.75 302.75 300.75H307.25V305.25C307.25 305.664 307.586 306 308 306C308.414 306 308.75 305.664 308.75 305.25V300.75H313.25C313.664 300.75 314 300.414 314 300C314 299.586 313.664 299.25 313.25 299.25H308.75V294.75C308.75 294.336 308.414 294 308 294Z" fill="#155D18"></path> <path d="M288 313H328V330C328 333.314 325.314 336 322 336H294C290.686 336 288 333.314 288 330V313Z" fill="#FCD0CF" fill-opacity="0.5"></path> <path d="M302 325C302 324.448 302.336 324 302.75 324H313.25C313.664 324 314 324.448 314 325C314 325.552 313.664 326 313.25 326H302.75C302.336 326 302 325.552 302 325Z" fill="#910B08"></path> <path d="M16 386C16 380.477 20.4772 376 26 376H142C147.523 376 152 380.477 152 386V414C152 419.523 147.523 424 142 424H26C20.4772 424 16 419.523 16 414V386Z" fill="#E6E6E6" fill-opacity="0.5"></path> <path d="M32 400C32 399.448 32.4477 399 33 399H47C47.5523 399 48 399.448 48 400C48 400.552 47.5523 401 47 401H33C32.4477 401 32 400.552 32 400Z" fill="#910B08"></path> <rect x="60.5" y="380.5" width="47" height="39" rx="7.5" fill="white" stroke="#C0C0C0"></rect> <g clip-path="url(#clip3)"> <path d="M78.37 398.75C77.52 398.75 76.63 399.02 75.91 399.53L76.15 395.57H82.05V393.6H74.28L73.84 401.17L75.66 401.81C76.11 401.21 76.92 400.65 78.11 400.65C79.64 400.65 80.93 401.89 80.93 403.47C80.93 405.01 79.69 406.28 78.11 406.28C76.9 406.28 75.71 405.47 75.39 404.19L73.37 404.73C73.96 406.83 75.83 408.3 78.04 408.3C80.73 408.3 83.04 406.15 83.04 403.47C83.04 400.77 81.06 398.75 78.37 398.75ZM90.7523 393.3C88.0623 393.3 85.8023 395.43 85.8023 398.13C85.8023 400.82 87.7823 402.86 90.4723 402.86C91.6423 402.86 92.7523 402.38 93.5623 401.58V403.29C93.5623 404.87 92.3323 406.31 90.5423 406.31C89.6123 406.31 88.7423 405.86 88.2023 405.15L86.6623 406.58C87.6423 407.71 89.0223 408.29 90.5423 408.29C93.5823 408.29 95.7023 406.17 95.7023 403.02V398.43C95.7023 395.46 93.5423 393.3 90.7523 393.3ZM90.7423 400.95C89.1823 400.95 87.9223 399.69 87.9223 398.13C87.9223 396.57 89.1923 395.31 90.7523 395.31C92.3123 395.31 93.5623 396.59 93.5623 398.13C93.5623 399.69 92.3023 400.95 90.7423 400.95Z" fill="black"></path> </g> <path d="M128 392C127.448 392 127 392.448 127 393V399H121C120.448 399 120 399.448 120 400C120 400.552 120.448 401 121 401H127V407C127 407.552 127.448 408 128 408C128.552 408 129 407.552 129 407V401H135C135.552 401 136 400.552 136 400C136 399.448 135.552 399 135 399H129V393C129 392.448 128.552 392 128 392Z" fill="#155D18"></path> <path d="M216 738C216 732.477 220.477 728 226 728H318C323.523 728 328 732.477 328 738V766C328 771.523 323.523 776 318 776H226C220.477 776 216 771.523 216 766V738Z" fill="#E6E6E6" fill-opacity="0.5"></path> <path d="M232 752C232 751.448 232.448 751 233 751H247C247.552 751 248 751.448 248 752C248 752.552 247.552 753 247 753H233C232.448 753 232 752.552 232 752Z" fill="#910B08"></path> <line x1="272" y1="741" x2="272" y2="763" stroke="#E0E0E0" stroke-width="2" stroke-linecap="round" stroke-linejoin="round"></line> <path d="M304 744C303.448 744 303 744.448 303 745V751H297C296.448 751 296 751.448 296 752C296 752.552 296.448 753 297 753H303V759C303 759.552 303.448 760 304 760C304.552 760 305 759.552 305 759V753H311C311.552 753 312 752.552 312 752C312 751.448 311.552 751 311 751H305V745C305 744.448 304.552 744 304 744Z" fill="#155D18"></path> <path d="M192 386C192 380.477 196.477 376 202 376H318C323.523 376 328 380.477 328 386V414C328 419.523 323.523 424 318 424H202C196.477 424 192 419.523 192 414V386Z" fill="#E6E6E6" fill-opacity="0.5"></path> <rect x="196.5" y="380.5" width="83" height="39" rx="7.5" fill="white" stroke="#C0C0C0"></rect> <g clip-path="url(#clip4)"> <path d="M214.37 398.75C213.52 398.75 212.63 399.02 211.91 399.53L212.15 395.57H218.05V393.6H210.28L209.84 401.17L211.66 401.81C212.11 401.21 212.92 400.65 214.11 400.65C215.64 400.65 216.93 401.89 216.93 403.47C216.93 405.01 215.69 406.28 214.11 406.28C212.9 406.28 211.71 405.47 211.39 404.19L209.37 404.73C209.96 406.83 211.83 408.3 214.04 408.3C216.73 408.3 219.04 406.15 219.04 403.47C219.04 400.77 217.06 398.75 214.37 398.75ZM226.752 393.3C224.062 393.3 221.802 395.43 221.802 398.13C221.802 400.82 223.782 402.86 226.472 402.86C227.642 402.86 228.752 402.38 229.562 401.58V403.29C229.562 404.87 228.332 406.31 226.542 406.31C225.612 406.31 224.742 405.86 224.202 405.15L222.662 406.58C223.642 407.71 225.022 408.29 226.542 408.29C229.582 408.29 231.702 406.17 231.702 403.02V398.43C231.702 395.46 229.542 393.3 226.752 393.3ZM226.742 400.95C225.182 400.95 223.922 399.69 223.922 398.13C223.922 396.57 225.192 395.31 226.752 395.31C228.312 395.31 229.562 396.59 229.562 398.13C229.562 399.69 228.302 400.95 226.742 400.95Z" fill="black"></path> </g> <path d="M304 383C303.586 383 303.25 383.336 303.25 383.75V388.25H298.75C298.336 388.25 298 388.586 298 389C298 389.414 298.336 389.75 298.75 389.75H303.25V394.25C303.25 394.664 303.586 395 304 395C304.414 395 304.75 394.664 304.75 394.25V389.75H309.25C309.664 389.75 310 389.414 310 389C310 388.586 309.664 388.25 309.25 388.25H304.75V383.75C304.75 383.336 304.414 383 304 383Z" fill="#155D18"></path> <path d="M298 411C298 410.448 298.336 410 298.75 410H309.25C309.664 410 310 410.448 310 411C310 411.552 309.664 412 309.25 412H298.75C298.336 412 298 411.552 298 411Z" fill="#910B08"></path> <path d="M16 474C16 468.477 20.4772 464 26 464H142C147.523 464 152 468.477 152 474V502C152 507.523 147.523 512 142 512H26C20.4772 512 16 507.523 16 502V474Z" fill="#C5DCFA" fill-opacity="0.5"></path> <path d="M32 488C32 487.448 32.4477 487 33 487H47C47.5523 487 48 487.448 48 488C48 488.552 47.5523 489 47 489H33C32.4477 489 32 488.552 32 488Z" fill="#0F56B3"></path> <rect x="60.5" y="468.5" width="47" height="39" rx="7.5" fill="white" stroke="#8AB9F6"></rect> <g clip-path="url(#clip5)"> <path d="M78.37 486.75C77.52 486.75 76.63 487.02 75.91 487.53L76.15 483.57H82.05V481.6H74.28L73.84 489.17L75.66 489.81C76.11 489.21 76.92 488.65 78.11 488.65C79.64 488.65 80.93 489.89 80.93 491.47C80.93 493.01 79.69 494.28 78.11 494.28C76.9 494.28 75.71 493.47 75.39 492.19L73.37 492.73C73.96 494.83 75.83 496.3 78.04 496.3C80.73 496.3 83.04 494.15 83.04 491.47C83.04 488.77 81.06 486.75 78.37 486.75ZM93.8023 488.28C94.7323 487.53 95.1823 486.51 95.1823 485.31C95.1823 482.85 93.3423 481.3 90.7423 481.3C88.1423 481.3 86.2923 482.85 86.2923 485.31C86.2923 486.5 86.7823 487.53 87.6723 488.28C86.5123 489.11 85.9323 490.39 85.9323 491.82C85.9323 494.47 87.9223 496.3 90.7423 496.3C93.5523 496.3 95.5623 494.47 95.5623 491.82C95.5623 490.39 94.9623 489.09 93.8023 488.28ZM90.7423 483.29C92.0623 483.29 92.9623 483.96 92.9623 485.31C92.9623 486.65 92.0623 487.31 90.7423 487.31C89.4223 487.31 88.5123 486.65 88.5123 485.31C88.5123 483.96 89.4223 483.29 90.7423 483.29ZM90.7423 494.31C89.1923 494.31 88.1423 493.45 88.1423 491.82C88.1423 490.19 89.1823 489.31 90.7423 489.31C92.3023 489.31 93.3423 490.19 93.3423 491.82C93.3423 493.45 92.2823 494.31 90.7423 494.31Z" fill="#0A3977"></path> </g> <path d="M128 480C127.448 480 127 480.448 127 481V487H121C120.448 487 120 487.448 120 488C120 488.552 120.448 489 121 489H127V495C127 495.552 127.448 496 128 496C128.552 496 129 495.552 129 495V489H135C135.552 489 136 488.552 136 488C136 487.448 135.552 487 135 487H129V481C129 480.448 128.552 480 128 480Z" fill="#0F56B3"></path> <path d="M16 650C16 644.477 20.4772 640 26 640H118C123.523 640 128 644.477 128 650V678C128 683.523 123.523 688 118 688H26C20.4772 688 16 683.523 16 678V650Z" fill="#C5DCFA" fill-opacity="0.5"></path> <path d="M32 664C32 663.448 32.4477 663 33 663H47C47.5523 663 48 663.448 48 664C48 664.552 47.5523 665 47 665H33C32.4477 665 32 664.552 32 664Z" fill="#0F56B3"></path> <line x1="72" y1="653" x2="72" y2="675" stroke="#C5DCFA" stroke-width="2" stroke-linecap="round" stroke-linejoin="round"></line> <path d="M104 656C103.448 656 103 656.448 103 657V663H97C96.4477 663 96 663.448 96 664C96 664.552 96.4477 665 97 665H103V671C103 671.552 103.448 672 104 672C104.552 672 105 671.552 105 671V665H111C111.552 665 112 664.552 112 664C112 663.448 111.552 663 111 663H105V657C105 656.448 104.552 656 104 656Z" fill="#0F56B3"></path> <path d="M192 474C192 468.477 196.477 464 202 464H318C323.523 464 328 468.477 328 474V502C328 507.523 323.523 512 318 512H202C196.477 512 192 507.523 192 502V474Z" fill="#C5DCFA" fill-opacity="0.5"></path> <rect x="196.5" y="468.5" width="83" height="39" rx="7.5" fill="white" stroke="#8AB9F6"></rect> <g clip-path="url(#clip6)"> <path d="M214.37 486.75C213.52 486.75 212.63 487.02 211.91 487.53L212.15 483.57H218.05V481.6H210.28L209.84 489.17L211.66 489.81C212.11 489.21 212.92 488.65 214.11 488.65C215.64 488.65 216.93 489.89 216.93 491.47C216.93 493.01 215.69 494.28 214.11 494.28C212.9 494.28 211.71 493.47 211.39 492.19L209.37 492.73C209.96 494.83 211.83 496.3 214.04 496.3C216.73 496.3 219.04 494.15 219.04 491.47C219.04 488.77 217.06 486.75 214.37 486.75ZM229.802 488.28C230.732 487.53 231.182 486.51 231.182 485.31C231.182 482.85 229.342 481.3 226.742 481.3C224.142 481.3 222.292 482.85 222.292 485.31C222.292 486.5 222.782 487.53 223.672 488.28C222.512 489.11 221.932 490.39 221.932 491.82C221.932 494.47 223.922 496.3 226.742 496.3C229.552 496.3 231.562 494.47 231.562 491.82C231.562 490.39 230.962 489.09 229.802 488.28ZM226.742 483.29C228.062 483.29 228.962 483.96 228.962 485.31C228.962 486.65 228.062 487.31 226.742 487.31C225.422 487.31 224.512 486.65 224.512 485.31C224.512 483.96 225.422 483.29 226.742 483.29ZM226.742 494.31C225.192 494.31 224.142 493.45 224.142 491.82C224.142 490.19 225.182 489.31 226.742 489.31C228.302 489.31 229.342 490.19 229.342 491.82C229.342 493.45 228.282 494.31 226.742 494.31Z" fill="#0A3977"></path> </g> <path d="M284 474C284 470.686 286.686 468 290 468H318C321.314 468 324 470.686 324 474V486H284V474Z" fill="#C5F2C7" fill-opacity="0.5"></path> <path d="M304 471C303.586 471 303.25 471.336 303.25 471.75V476.25H298.75C298.336 476.25 298 476.586 298 477C298 477.414 298.336 477.75 298.75 477.75H303.25V482.25C303.25 482.664 303.586 483 304 483C304.414 483 304.75 482.664 304.75 482.25V477.75H309.25C309.664 477.75 310 477.414 310 477C310 476.586 309.664 476.25 309.25 476.25H304.75V471.75C304.75 471.336 304.414 471 304 471Z" fill="#155D18"></path> <path d="M284 490H324V502C324 505.314 321.314 508 318 508H290C286.686 508 284 505.314 284 502V490Z" fill="#FCD0CF" fill-opacity="0.5"></path> <path d="M298 499C298 498.448 298.336 498 298.75 498H309.25C309.664 498 310 498.448 310 499C310 499.552 309.664 500 309.25 500H298.75C298.336 500 298 499.552 298 499Z" fill="#910B08"></path> <g filter="url(#filter0_dd)"> <path d="M16 562C16 556.477 20.4772 552 26 552H142C147.523 552 152 556.477 152 562V590C152 595.523 147.523 600 142 600H26C20.4772 600 16 595.523 16 590V562Z" fill="white"></path> <rect x="20" y="556" width="40" height="40" rx="6" fill="#FCD0CF" fill-opacity="0.5"></rect> <path d="M32 576C32 575.448 32.4477 575 33 575H47C47.5523 575 48 575.448 48 576C48 576.552 47.5523 577 47 577H33C32.4477 577 32 576.552 32 576Z" fill="#910B08"></path> <g clip-path="url(#clip7)"> <path d="M78.37 574.75C77.52 574.75 76.63 575.02 75.91 575.53L76.15 571.57H82.05V569.6H74.28L73.84 577.17L75.66 577.81C76.11 577.21 76.92 576.65 78.11 576.65C79.64 576.65 80.93 577.89 80.93 579.47C80.93 581.01 79.69 582.28 78.11 582.28C76.9 582.28 75.71 581.47 75.39 580.19L73.37 580.73C73.96 582.83 75.83 584.3 78.04 584.3C80.73 584.3 83.04 582.15 83.04 579.47C83.04 576.77 81.06 574.75 78.37 574.75ZM87.8123 584H90.0723L95.1223 571.59V569.6H86.4623V571.59H92.8823L87.8123 584Z" fill="black"></path> </g> <rect x="108" y="556" width="40" height="40" rx="6" fill="#C5F2C7" fill-opacity="0.5"></rect> <path d="M128 568C127.448 568 127 568.448 127 569V575H121C120.448 575 120 575.448 120 576C120 576.552 120.448 577 121 577H127V583C127 583.552 127.448 584 128 584C128.552 584 129 583.552 129 583V577H135C135.552 577 136 576.552 136 576C136 575.448 135.552 575 135 575H129V569C129 568.448 128.552 568 128 568Z" fill="#155D18"></path> </g> <g filter="url(#filter1_dd)"> <path d="M16 738C16 732.477 20.4772 728 26 728H118C123.523 728 128 732.477 128 738V766C128 771.523 123.523 776 118 776H26C20.4772 776 16 771.523 16 766V738Z" fill="white"></path> <rect x="20" y="732" width="40" height="40" rx="6" fill="#FCD0CF" fill-opacity="0.5"></rect> <path d="M32 752C32 751.448 32.4477 751 33 751H47C47.5523 751 48 751.448 48 752C48 752.552 47.5523 753 47 753H33C32.4477 753 32 752.552 32 752Z" fill="#910B08"></path> <line x1="72" y1="741" x2="72" y2="763" stroke="#E0E0E0" stroke-width="2" stroke-linecap="round" stroke-linejoin="round"></line> <rect x="84" y="732" width="40" height="40" rx="6" fill="#C5F2C7" fill-opacity="0.5"></rect> <path d="M104 744C103.448 744 103 744.448 103 745V751H97C96.4477 751 96 751.448 96 752C96 752.552 96.4477 753 97 753H103V759C103 759.552 103.448 760 104 760C104.552 760 105 759.552 105 759V753H111C111.552 753 112 752.552 112 752C112 751.448 111.552 751 111 751H105V745C105 744.448 104.552 744 104 744Z" fill="#155D18"></path> </g> <g filter="url(#filter2_dd)"> <path d="M192 562C192 556.477 196.477 552 202 552H318C323.523 552 328 556.477 328 562V590C328 595.523 323.523 600 318 600H202C196.477 600 192 595.523 192 590V562Z" fill="white"></path> <g clip-path="url(#clip8)"> <path d="M214.37 574.75C213.52 574.75 212.63 575.02 211.91 575.53L212.15 571.57H218.05V569.6H210.28L209.84 577.17L211.66 577.81C212.11 577.21 212.92 576.65 214.11 576.65C215.64 576.65 216.93 577.89 216.93 579.47C216.93 581.01 215.69 582.28 214.11 582.28C212.9 582.28 211.71 581.47 211.39 580.19L209.37 580.73C209.96 582.83 211.83 584.3 214.04 584.3C216.73 584.3 219.04 582.15 219.04 579.47C219.04 576.77 217.06 574.75 214.37 574.75ZM223.812 584H226.072L231.122 571.59V569.6H222.462V571.59H228.882L223.812 584Z" fill="black"></path> </g> <path d="M284 562C284 558.686 286.686 556 290 556H318C321.314 556 324 558.686 324 562V575H284V562Z" fill="#C5F2C7" fill-opacity="0.5"></path> <path d="M304 560C303.586 560 303.25 560.336 303.25 560.75V565.25H298.75C298.336 565.25 298 565.586 298 566C298 566.414 298.336 566.75 298.75 566.75H303.25V571.25C303.25 571.664 303.586 572 304 572C304.414 572 304.75 571.664 304.75 571.25V566.75H309.25C309.664 566.75 310 566.414 310 566C310 565.586 309.664 565.25 309.25 565.25H304.75V560.75C304.75 560.336 304.414 560 304 560Z" fill="#155D18"></path> <path d="M284 577H324V590C324 593.314 321.314 596 318 596H290C286.686 596 284 593.314 284 590V577Z" fill="#FCD0CF" fill-opacity="0.5"></path> <path d="M298 587C298 586.448 298.336 586 298.75 586H309.25C309.664 586 310 586.448 310 587C310 587.552 309.664 588 309.25 588H298.75C298.336 588 298 587.552 298 587Z" fill="#910B08"></path> </g> <rect x="16" y="16" width="48" height="24" rx="6" fill="#C5F2C7" fill-opacity="0.5"></rect> <path d="M40 22C39.5858 22 39.25 22.3358 39.25 22.75V27.25H34.75C34.3358 27.25 34 27.5858 34 28C34 28.4142 34.3358 28.75 34.75 28.75H39.25V33.25C39.25 33.6642 39.5858 34 40 34C40.4142 34 40.75 33.6642 40.75 33.25V28.75H45.25C45.6642 28.75 46 28.4142 46 28C46 27.5858 45.6642 27.25 45.25 27.25H40.75V22.75C40.75 22.3358 40.4142 22 40 22Z" fill="#155D18"></path> <rect opacity="0.5" x="16" y="44" width="48" height="48" rx="8" fill="#E0E0E0"></rect> <g clip-path="url(#clip9)"> <path d="M34.21 76.3C37.15 76.3 39.23 74.21 39.23 71.28V66.32C39.23 63.39 37.15 61.3 34.21 61.3C31.28 61.3 29.19 63.39 29.19 66.32V71.28C29.19 74.21 31.28 76.3 34.21 76.3ZM34.21 74.3C32.61 74.3 31.33 73.02 31.33 71.41V66.17C31.33 64.57 32.61 63.29 34.21 63.29C35.82 63.29 37.1 64.57 37.1 66.17V71.41C37.1 73.02 35.82 74.3 34.21 74.3ZM46.7623 76.3C49.7023 76.3 51.7823 74.21 51.7823 71.28V66.32C51.7823 63.39 49.7023 61.3 46.7623 61.3C43.8323 61.3 41.7423 63.39 41.7423 66.32V71.28C41.7423 74.21 43.8323 76.3 46.7623 76.3ZM46.7623 74.3C45.1623 74.3 43.8823 73.02 43.8823 71.41V66.17C43.8823 64.57 45.1623 63.29 46.7623 63.29C48.3723 63.29 49.6523 64.57 49.6523 66.17V71.41C49.6523 73.02 48.3723 74.3 46.7623 74.3Z" fill="black"></path> </g> <rect x="16" y="96" width="48" height="24" rx="6" fill="#FCD0CF" fill-opacity="0.5"></rect> <path d="M34 108C34 107.448 34.3358 107 34.75 107H45.25C45.6642 107 46 107.448 46 108C46 108.552 45.6642 109 45.25 109H34.75C34.3358 109 34 108.552 34 108Z" fill="#910B08"></path> <path d="M128 22C127.586 22 127.25 22.3358 127.25 22.75V27.25H122.75C122.336 27.25 122 27.5858 122 28C122 28.4142 122.336 28.75 122.75 28.75H127.25V33.25C127.25 33.6642 127.586 34 128 34C128.414 34 128.75 33.6642 128.75 33.25V28.75H133.25C133.664 28.75 134 28.4142 134 28C134 27.5858 133.664 27.25 133.25 27.25H128.75V22.75C128.75 22.3358 128.414 22 128 22Z" fill="#155D18"></path> <rect opacity="0.5" x="104" y="44" width="48" height="48" rx="8" fill="#E0E0E0"></rect> <g clip-path="url(#clip10)"> <path d="M122.233 76.3C125.173 76.3 127.253 74.21 127.253 71.28V66.32C127.253 63.39 125.173 61.3 122.233 61.3C119.303 61.3 117.213 63.39 117.213 66.32V71.28C117.213 74.21 119.303 76.3 122.233 76.3ZM122.233 74.3C120.633 74.3 119.353 73.02 119.353 71.41V66.17C119.353 64.57 120.633 63.29 122.233 63.29C123.843 63.29 125.123 64.57 125.123 66.17V71.41C125.123 73.02 123.843 74.3 122.233 74.3ZM137.285 70.28C138.845 68.91 139.625 68.01 139.625 66.04C139.625 63.31 137.585 61.3 134.865 61.3C131.985 61.3 129.935 63.21 129.935 66H132.085C132.055 64.55 133.215 63.29 134.825 63.29C136.365 63.29 137.485 64.47 137.485 66.01C137.485 66.83 137.175 67.61 136.165 68.51L129.895 74.13L129.885 75.99H139.625V74H133.115L137.285 70.28Z" fill="black"></path> </g> <path d="M122 108C122 107.448 122.336 107 122.75 107H133.25C133.664 107 134 107.448 134 108C134 108.552 133.664 109 133.25 109H122.75C122.336 109 122 108.552 122 108Z" fill="#910B08"></path> <path d="M192 26C192 20.4772 196.477 16 202 16H230C235.523 16 240 20.4772 240 26V110C240 115.523 235.523 120 230 120H202C196.477 120 192 115.523 192 110V26Z" fill="#E6E6E6" fill-opacity="0.5"></path> <rect x="196" y="20" width="40" height="24" rx="6" fill="white"></rect> <path d="M216 26C215.586 26 215.25 26.3358 215.25 26.75V31.25H210.75C210.336 31.25 210 31.5858 210 32C210 32.4142 210.336 32.75 210.75 32.75H215.25V37.25C215.25 37.6642 215.586 38 216 38C216.414 38 216.75 37.6642 216.75 37.25V32.75H221.25C221.664 32.75 222 32.4142 222 32C222 31.5858 221.664 31.25 221.25 31.25H216.75V26.75C216.75 26.3358 216.414 26 216 26Z" fill="#155D18"></path> <g clip-path="url(#clip11)"> <path d="M210.37 66.75C209.52 66.75 208.63 67.02 207.91 67.53L208.15 63.57H214.05V61.6H206.28L205.84 69.17L207.66 69.81C208.11 69.21 208.92 68.65 210.11 68.65C211.64 68.65 212.93 69.89 212.93 71.47C212.93 73.01 211.69 74.28 210.11 74.28C208.9 74.28 207.71 73.47 207.39 72.19L205.37 72.73C205.96 74.83 207.83 76.3 210.04 76.3C212.73 76.3 215.04 74.15 215.04 71.47C215.04 68.77 213.06 66.75 210.37 66.75ZM222.752 61.3C220.062 61.3 217.802 63.43 217.802 66.13C217.802 68.82 219.782 70.86 222.472 70.86C223.642 70.86 224.752 70.38 225.562 69.58V71.29C225.562 72.87 224.332 74.31 222.542 74.31C221.612 74.31 220.742 73.86 220.202 73.15L218.662 74.58C219.642 75.71 221.022 76.29 222.542 76.29C225.582 76.29 227.702 74.17 227.702 71.02V66.43C227.702 63.46 225.542 61.3 222.752 61.3ZM222.742 68.95C221.182 68.95 219.922 67.69 219.922 66.13C219.922 64.57 221.192 63.31 222.752 63.31C224.312 63.31 225.562 64.59 225.562 66.13C225.562 67.69 224.302 68.95 222.742 68.95Z" fill="black"></path> </g> <rect x="196" y="92" width="40" height="24" rx="6" fill="white"></rect> <path d="M210 104C210 103.448 210.336 103 210.75 103H221.25C221.664 103 222 103.448 222 104C222 104.552 221.664 105 221.25 105H210.75C210.336 105 210 104.552 210 104Z" fill="#910B08"></path> <path d="M280 26C280 20.4772 284.477 16 290 16H318C323.523 16 328 20.4772 328 26V110C328 115.523 323.523 120 318 120H290C284.477 120 280 115.523 280 110V26Z" fill="#C5DCFA" fill-opacity="0.5"></path> <rect x="284" y="20" width="40" height="24" rx="6" fill="white"></rect> <path d="M304 26C303.586 26 303.25 26.3358 303.25 26.75V31.25H298.75C298.336 31.25 298 31.5858 298 32C298 32.4142 298.336 32.75 298.75 32.75H303.25V37.25C303.25 37.6642 303.586 38 304 38C304.414 38 304.75 37.6642 304.75 37.25V32.75H309.25C309.664 32.75 310 32.4142 310 32C310 31.5858 309.664 31.25 309.25 31.25H304.75V26.75C304.75 26.3358 304.414 26 304 26Z" fill="#1672EC"></path> <g clip-path="url(#clip12)"> <path d="M298.37 66.75C297.52 66.75 296.63 67.02 295.91 67.53L296.15 63.57H302.05V61.6H294.28L293.84 69.17L295.66 69.81C296.11 69.21 296.92 68.65 298.11 68.65C299.64 68.65 300.93 69.89 300.93 71.47C300.93 73.01 299.69 74.28 298.11 74.28C296.9 74.28 295.71 73.47 295.39 72.19L293.37 72.73C293.96 74.83 295.83 76.3 298.04 76.3C300.73 76.3 303.04 74.15 303.04 71.47C303.04 68.77 301.06 66.75 298.37 66.75ZM313.802 68.28C314.732 67.53 315.182 66.51 315.182 65.31C315.182 62.85 313.342 61.3 310.742 61.3C308.142 61.3 306.292 62.85 306.292 65.31C306.292 66.5 306.782 67.53 307.672 68.28C306.512 69.11 305.932 70.39 305.932 71.82C305.932 74.47 307.922 76.3 310.742 76.3C313.552 76.3 315.562 74.47 315.562 71.82C315.562 70.39 314.962 69.09 313.802 68.28ZM310.742 63.29C312.062 63.29 312.962 63.96 312.962 65.31C312.962 66.65 312.062 67.31 310.742 67.31C309.422 67.31 308.512 66.65 308.512 65.31C308.512 63.96 309.422 63.29 310.742 63.29ZM310.742 74.31C309.192 74.31 308.142 73.45 308.142 71.82C308.142 70.19 309.182 69.31 310.742 69.31C312.302 69.31 313.342 70.19 313.342 71.82C313.342 73.45 312.282 74.31 310.742 74.31Z" fill="#0A3977"></path> </g> <rect x="284" y="92" width="40" height="24" rx="6" fill="white"></rect> <path d="M298 104C298 103.448 298.336 103 298.75 103H309.25C309.664 103 310 103.448 310 104C310 104.552 309.664 105 309.25 105H298.75C298.336 105 298 104.552 298 104Z" fill="#1672EC"></path> <g filter="url(#filter3_dd)"> <path d="M368 26C368 20.4772 372.477 16 378 16H406C411.523 16 416 20.4772 416 26V110C416 115.523 411.523 120 406 120H378C372.477 120 368 115.523 368 110V26Z" fill="white"></path> <rect x="372" y="20" width="40" height="24" rx="6" fill="#C5F2C7" fill-opacity="0.5"></rect> <path d="M392 26C391.586 26 391.25 26.3358 391.25 26.75V31.25H386.75C386.336 31.25 386 31.5858 386 32C386 32.4142 386.336 32.75 386.75 32.75H391.25V37.25C391.25 37.6642 391.586 38 392 38C392.414 38 392.75 37.6642 392.75 37.25V32.75H397.25C397.664 32.75 398 32.4142 398 32C398 31.5858 397.664 31.25 397.25 31.25H392.75V26.75C392.75 26.3358 392.414 26 392 26Z" fill="#155D18"></path> <g clip-path="url(#clip13)"> <path d="M386.37 66.75C385.52 66.75 384.63 67.02 383.91 67.53L384.15 63.57H390.05V61.6H382.28L381.84 69.17L383.66 69.81C384.11 69.21 384.92 68.65 386.11 68.65C387.64 68.65 388.93 69.89 388.93 71.47C388.93 73.01 387.69 74.28 386.11 74.28C384.9 74.28 383.71 73.47 383.39 72.19L381.37 72.73C381.96 74.83 383.83 76.3 386.04 76.3C388.73 76.3 391.04 74.15 391.04 71.47C391.04 68.77 389.06 66.75 386.37 66.75ZM395.812 76H398.072L403.122 63.59V61.6H394.462V63.59H400.882L395.812 76Z" fill="black"></path> </g> <rect x="372" y="92" width="40" height="24" rx="6" fill="#FCD0CF" fill-opacity="0.5"></rect> <path d="M386 104C386 103.448 386.336 103 386.75 103H397.25C397.664 103 398 103.448 398 104C398 104.552 397.664 105 397.25 105H386.75C386.336 105 386 104.552 386 104Z" fill="#910B08"></path> </g> <defs> <filter id="filter0_dd" x="12" y="550" width="144" height="56" filterUnits="userSpaceOnUse" color-interpolation-filters="sRGB"> <feFlood flood-opacity="0" result="BackgroundImageFix"></feFlood> <feColorMatrix in="SourceAlpha" type="matrix" values="0 0 0 0 0 0 0 0 0 0 0 0 0 0 0 0 0 0 127 0"></feColorMatrix> <feOffset dy="2"></feOffset> <feGaussianBlur stdDeviation="2"></feGaussianBlur> <feColorMatrix type="matrix" values="0 0 0 0 0.380392 0 0 0 0 0.380392 0 0 0 0 0.380392 0 0 0 0.2 0"></feColorMatrix> <feBlend mode="multiply" in2="BackgroundImageFix" result="effect1_dropShadow"></feBlend> <feColorMatrix in="SourceAlpha" type="matrix" values="0 0 0 0 0 0 0 0 0 0 0 0 0 0 0 0 0 0 127 0"></feColorMatrix> <feOffset dy="1"></feOffset> <feGaussianBlur stdDeviation="1"></feGaussianBlur> <feColorMatrix type="matrix" values="0 0 0 0 0.380392 0 0 0 0 0.380392 0 0 0 0 0.380392 0 0 0 0.2 0"></feColorMatrix> <feBlend mode="multiply" in2="effect1_dropShadow" result="effect2_dropShadow"></feBlend> <feBlend mode="normal" in="SourceGraphic" in2="effect2_dropShadow" result="shape"></feBlend> </filter> <filter id="filter1_dd" x="12" y="726" width="120" height="56" filterUnits="userSpaceOnUse" color-interpolation-filters="sRGB"> <feFlood flood-opacity="0" result="BackgroundImageFix"></feFlood> <feColorMatrix in="SourceAlpha" type="matrix" values="0 0 0 0 0 0 0 0 0 0 0 0 0 0 0 0 0 0 127 0"></feColorMatrix> <feOffset dy="2"></feOffset> <feGaussianBlur stdDeviation="2"></feGaussianBlur> <feColorMatrix type="matrix" values="0 0 0 0 0.380392 0 0 0 0 0.380392 0 0 0 0 0.380392 0 0 0 0.2 0"></feColorMatrix> <feBlend mode="multiply" in2="BackgroundImageFix" result="effect1_dropShadow"></feBlend> <feColorMatrix in="SourceAlpha" type="matrix" values="0 0 0 0 0 0 0 0 0 0 0 0 0 0 0 0 0 0 127 0"></feColorMatrix> <feOffset dy="1"></feOffset> <feGaussianBlur stdDeviation="1"></feGaussianBlur> <feColorMatrix type="matrix" values="0 0 0 0 0.380392 0 0 0 0 0.380392 0 0 0 0 0.380392 0 0 0 0.2 0"></feColorMatrix> <feBlend mode="multiply" in2="effect1_dropShadow" result="effect2_dropShadow"></feBlend> <feBlend mode="normal" in="SourceGraphic" in2="effect2_dropShadow" result="shape"></feBlend> </filter> <filter id="filter2_dd" x="188" y="550" width="144" height="56" filterUnits="userSpaceOnUse" color-interpolation-filters="sRGB"> <feFlood flood-opacity="0" result="BackgroundImageFix"></feFlood> <feColorMatrix in="SourceAlpha" type="matrix" values="0 0 0 0 0 0 0 0 0 0 0 0 0 0 0 0 0 0 127 0"></feColorMatrix> <feOffset dy="2"></feOffset> <feGaussianBlur stdDeviation="2"></feGaussianBlur> <feColorMatrix type="matrix" values="0 0 0 0 0.380392 0 0 0 0 0.380392 0 0 0 0 0.380392 0 0 0 0.2 0"></feColorMatrix> <feBlend mode="multiply" in2="BackgroundImageFix" result="effect1_dropShadow"></feBlend> <feColorMatrix in="SourceAlpha" type="matrix" values="0 0 0 0 0 0 0 0 0 0 0 0 0 0 0 0 0 0 127 0"></feColorMatrix> <feOffset dy="1"></feOffset> <feGaussianBlur stdDeviation="1"></feGaussianBlur> <feColorMatrix type="matrix" values="0 0 0 0 0.380392 0 0 0 0 0.380392 0 0 0 0 0.380392 0 0 0 0.2 0"></feColorMatrix> <feBlend mode="multiply" in2="effect1_dropShadow" result="effect2_dropShadow"></feBlend> <feBlend mode="normal" in="SourceGraphic" in2="effect2_dropShadow" result="shape"></feBlend> </filter> <filter id="filter3_dd" x="364" y="14" width="56" height="112" filterUnits="userSpaceOnUse" color-interpolation-filters="sRGB"> <feFlood flood-opacity="0" result="BackgroundImageFix"></feFlood> <feColorMatrix in="SourceAlpha" type="matrix" values="0 0 0 0 0 0 0 0 0 0 0 0 0 0 0 0 0 0 127 0"></feColorMatrix> <feOffset dy="2"></feOffset> <feGaussianBlur stdDeviation="2"></feGaussianBlur> <feColorMatrix type="matrix" values="0 0 0 0 0.380392 0 0 0 0 0.380392 0 0 0 0 0.380392 0 0 0 0.2 0"></feColorMatrix> <feBlend mode="multiply" in2="BackgroundImageFix" result="effect1_dropShadow"></feBlend> <feColorMatrix in="SourceAlpha" type="matrix" values="0 0 0 0 0 0 0 0 0 0 0 0 0 0 0 0 0 0 127 0"></feColorMatrix> <feOffset dy="1"></feOffset> <feGaussianBlur stdDeviation="1"></feGaussianBlur> <feColorMatrix type="matrix" values="0 0 0 0 0.380392 0 0 0 0 0.380392 0 0 0 0 0.380392 0 0 0 0.2 0"></feColorMatrix> <feBlend mode="multiply" in2="effect1_dropShadow" result="effect2_dropShadow"></feBlend> <feBlend mode="normal" in="SourceGraphic" in2="effect2_dropShadow" result="shape"></feBlend> </filter> <clipPath id="clip0"> <rect x="60" y="200" width="49" height="48" rx="8" fill="white"></rect> </clipPath> <clipPath id="clip1"> <rect x="60" y="288" width="49" height="48" rx="8" fill="white"></rect> </clipPath> <clipPath id="clip2"> <rect x="192" y="288" width="49" height="48" rx="8" fill="white"></rect> </clipPath> <clipPath id="clip3"> <rect x="60" y="380" width="49" height="40" rx="8" fill="white"></rect> </clipPath> <clipPath id="clip4"> <rect x="196" y="380" width="49" height="40" rx="8" fill="white"></rect> </clipPath> <clipPath id="clip5"> <rect x="60" y="468" width="49" height="40" rx="8" fill="white"></rect> </clipPath> <clipPath id="clip6"> <rect x="196" y="468" width="49" height="40" rx="8" fill="white"></rect> </clipPath> <clipPath id="clip7"> <rect x="60" y="556" width="49" height="40" rx="8" fill="white"></rect> </clipPath> <clipPath id="clip8"> <rect x="196" y="556" width="49" height="40" rx="8" fill="white"></rect> </clipPath> <clipPath id="clip9"> <rect x="16" y="44" width="49" height="48" rx="8" fill="white"></rect> </clipPath> <clipPath id="clip10"> <rect x="104" y="44" width="49" height="48" rx="8" fill="white"></rect> </clipPath> <clipPath id="clip11"> <rect x="196" y="48" width="40" height="40" rx="8" fill="white"></rect> </clipPath> <clipPath id="clip12"> <rect x="284" y="48" width="40" height="40" rx="8" fill="white"></rect> </clipPath> <clipPath id="clip13"> <rect x="372" y="48" width="40" height="40" rx="8" fill="white"></rect> </clipPath> </defs> </svg> 